<?xml version="1.0" encoding="UTF-8"?>
<svg version="1.1" xmlns="http://www.w3.org/2000/svg" width="1469" height="1110">
<path d="M0 0 C14.72916943 -0.00530419 29.45832756 -0.01597949 44.18749137 -0.02970473 C60.79574416 -0.04511364 77.40398208 -0.05323655 94.01224233 -0.05134676 C102.5267853 -0.05052669 111.04129975 -0.05274683 119.55583663 -0.06358497 C126.64604398 -0.07258864 133.7362118 -0.07495778 140.82642242 -0.06816272 C144.40569943 -0.06492645 147.98489967 -0.06491028 151.56416936 -0.07357471 C155.41237607 -0.08280263 159.26046764 -0.07670624 163.10867973 -0.06893508 C164.79771396 -0.07665019 164.79771396 -0.07665019 166.5208701 -0.08452116 C167.54097112 -0.07992252 168.56107213 -0.07532388 169.6120853 -0.07058589 C170.49396949 -0.07080326 171.37585368 -0.07102063 172.28446163 -0.07124458 C174.51891227 0.17830308 174.51891227 0.17830308 177.51891227 2.17830308 C177.89265843 4.45816268 177.89265843 4.45816268 177.89084907 7.37231191 C177.89743891 8.4799137 177.90402876 9.5875155 177.91081829 10.72868098 C177.89873369 12.56906519 177.89873369 12.56906519 177.88640495 14.44662888 C177.88967379 15.74211827 177.89294263 17.03760765 177.89631052 18.37235428 C177.90499255 21.98029651 177.89486193 25.58798301 177.88176818 29.19590302 C177.87090437 33.08209121 177.87727764 36.96825486 177.88155265 40.85445054 C177.88719678 48.47197559 177.87685109 56.08940031 177.86126469 63.70690825 C177.84376294 72.56887006 177.84230624 81.43081217 177.8416491 90.29278857 C177.8399596 106.09896815 177.82412662 121.90510189 177.80016227 137.71126206 C177.77689895 153.06608364 177.7627372 168.42087613 177.75914665 183.77571519 C177.75881249 185.19439531 177.75881249 185.19439531 177.75847159 186.64173564 C177.75802901 188.5469018 177.75758698 190.45206797 177.75714552 192.35723413 C177.75681617 193.76677591 177.75681617 193.76677591 177.75648017 195.20479329 C177.75626419 196.1420406 177.7560482 197.0792879 177.75582567 198.04493665 C177.75212865 212.65416559 177.74076899 227.26338981 177.72834978 241.87261358 C177.72390801 247.17673878 177.72047243 252.48086353 177.71772765 257.78498986 C177.71330301 266.19655334 177.7055574 274.60809942 177.69095324 283.01965191 C177.68432777 286.86577391 177.67927737 290.71188048 177.6784925 294.55800851 C177.67756603 298.71768083 177.66890558 302.87729947 177.65935417 307.03696091 C177.66065389 308.88069121 177.66065389 308.88069121 177.66197987 310.76166858 C177.65813872 311.86666263 177.65429758 312.97165667 177.65034004 314.11013539 C177.64909354 315.07164228 177.64784704 316.03314918 177.64656277 317.02379264 C177.51891227 319.17830308 177.51891227 319.17830308 176.51891227 320.17830308 C174.80159699 320.30169186 173.07923169 320.35511988 171.35769649 320.38182379 C170.22969115 320.40140205 169.10168582 320.4209803 167.9394985 320.44115184 C166.68269006 320.45750874 165.42588162 320.47386564 164.13098808 320.4907182 C162.79231287 320.51116408 161.45364201 320.53189589 160.11497529 320.55289011 C156.40324571 320.60913482 152.69145133 320.65765988 148.97958529 320.70393417 C146.58798585 320.73394694 144.19641051 320.76549951 141.80483444 320.7973159 C100.03179 321.3455851 58.25726091 321.3155306 16.48139567 321.29591456 C4.57051808 321.29053858 -7.34035761 321.29125898 -19.25123612 321.29205054 C-41.21457338 321.29335001 -63.17790761 321.29008637 -85.14124398 321.28403313 C-106.82988345 321.27807015 -128.51852166 321.27425003 -150.20716195 321.27318032 C-150.88571347 321.27314591 -151.56426499 321.2731115 -152.26337867 321.27307604 C-158.46271256 321.27276276 -164.66204644 321.27247508 -170.86138033 321.27221807 C-186.25853176 321.27157943 -201.65568316 321.27062058 -217.05283456 321.26944287 C-218.10348901 321.26936289 -218.10348901 321.26936289 -219.17536881 321.2692813 C-253.08212585 321.26667237 -286.98888206 321.2603701 -320.89563851 321.25374253 C-332.63255664 321.25145045 -344.36947476 321.2491749 -356.10639291 321.24696763 C-356.83451675 321.24683068 -357.56264059 321.24669373 -358.31282879 321.24655263 C-392.28902895 321.24018491 -426.26522924 321.23647538 -460.24142984 321.23343283 C-462.45263146 321.23323477 -464.66383309 321.23303558 -466.87503472 321.23283615 C-481.53124422 321.23151614 -496.18745372 321.23024153 -510.84366323 321.2289973 C-539.99513886 321.22652208 -569.14661446 321.22378046 -598.29809005 321.22085525 C-599.68573184 321.22071601 -601.07337363 321.22057695 -602.46101542 321.22043808 C-690.21918588 321.21165357 -777.97735541 321.19675736 -878.48108773 321.17830308 C-878.64829522 317.8942272 -878.8110716 314.60994501 -878.97315125 311.32561238 C-879.01978258 310.41079072 -879.06641391 309.49596906 -879.11445831 308.55342554 C-879.50707277 300.52616155 -879.63029556 292.50970411 -879.61661629 284.47342332 C-879.6156709 283.5621902 -879.6147255 282.65095708 -879.61375146 281.71211083 C-879.61267262 280.76952605 -879.61159379 279.82694127 -879.61048226 278.85579331 C-879.6118419 276.8198026 -879.61362496 274.78381213 -879.61579232 272.74782212 C-879.62029486 267.29235327 -879.61860844 261.83690364 -879.61541323 256.38143452 C-879.61285798 250.64852682 -879.61523536 244.91562063 -879.6167994 239.18271287 C-879.61860943 229.57975885 -879.61624295 219.97681256 -879.61145882 210.37385972 C-879.60599202 199.27234325 -879.60780098 188.17084508 -879.61328523 177.06932904 C-879.61781829 167.50968501 -879.61846675 157.95004649 -879.61584656 148.39040174 C-879.61428824 142.69190104 -879.6140784 136.99340897 -879.61738305 131.29490884 C-879.62026544 125.95382098 -879.61827929 120.61275689 -879.61248879 115.27167161 C-879.61116431 113.31085213 -879.61155004 111.35003066 -879.61375146 109.38921197 C-879.61647449 106.71829075 -879.61306792 104.0474463 -879.60807137 101.37653001 C-879.61030209 100.59707959 -879.61253282 99.81762917 -879.61483113 99.01455905 C-879.60228564 95.56961805 -879.44384238 92.48751076 -878.48108773 89.17830308 C-878.39663852 86.46329495 -878.36513318 83.7752258 -878.38343148 81.06087144 C-878.38489175 80.24580628 -878.38635201 79.43074113 -878.38785653 78.59097703 C-878.39165733 76.82418555 -878.39776843 75.05739787 -878.40592293 73.29062112 C-878.41868863 70.49605834 -878.42520253 67.70154302 -878.43006234 64.90695603 C-878.44148906 58.97655041 -878.46073598 53.04618391 -878.48108773 47.11580308 C-878.50466635 40.24069465 -878.52506251 33.36560859 -878.53702645 26.49046929 C-878.54351969 23.73452302 -878.55602679 20.97864504 -878.56873421 18.22272141 C-878.57236599 16.53726161 -878.57571781 14.85180118 -878.57874398 13.16634019 C-878.5839103 12.39794816 -878.58907662 11.62955613 -878.5943995 10.83787949 C-878.59471559 7.67613628 -878.48883567 5.2015469 -877.48108773 2.17830308 C-873.43958896 1.42073037 -869.6275543 1.05431416 -865.51795296 1.05804856 C-864.33861113 1.05667405 -863.1592693 1.05529955 -861.94418983 1.05388339 C-860.65570208 1.05747851 -859.36721432 1.06107363 -858.03968148 1.06477769 C-856.64720136 1.06505929 -855.2547211 1.06489699 -853.86224107 1.06433089 C-850.02786686 1.06403831 -846.19352353 1.06998588 -842.35915647 1.07690282 C-838.19844575 1.08328565 -834.03773384 1.08380444 -829.87701897 1.08500321 C-822.60257834 1.08785984 -815.32814781 1.09429201 -808.05371194 1.10300095 C-797.3194724 1.11575845 -786.58523569 1.12223085 -775.85098995 1.12702502 C-759.03104443 1.13456759 -742.21110243 1.1449683 -725.39115997 1.15754153 C-680.51314418 1.19096678 -635.63512238 1.20430666 -590.75709502 1.20917328 C-587.33076076 1.20955416 -583.9044265 1.20998727 -580.47809224 1.21042474 C-519.90061825 1.21771737 -459.32384895 1.16932825 -398.74671273 0.95955308 C-397.95175779 0.95680407 -397.15680286 0.95405507 -396.33775838 0.95122276 C-376.73246647 0.88323437 -357.12719964 0.809023 -337.52194069 0.7321694 C-308.26746286 0.61749866 -279.01296087 0.50944584 -249.75843148 0.40877183 C-248.9904311 0.40612406 -248.22243072 0.4034763 -247.4311576 0.4007483 C-164.95431663 0.11691398 -82.47728626 0.02930942 0 0 Z " fill="#FEFEFE" transform="translate(892.4810877293348,751.821696922183)"/>
<path d="M0 0 C40.34988156 -0.02286806 80.69976228 -0.04049909 121.04964902 -0.05106533 C125.8088155 -0.0523161 130.56798197 -0.05361041 135.32714844 -0.05493164 C136.2746487 -0.05519395 137.22214896 -0.05545626 138.19836135 -0.05572652 C153.5582458 -0.06008277 168.91812651 -0.06797008 184.27800874 -0.0771528 C200.028131 -0.08649057 215.77825131 -0.09205587 231.52837622 -0.09408849 C241.25406268 -0.09546346 250.9797386 -0.09981265 260.70542182 -0.10791647 C267.36655608 -0.11318545 274.02768487 -0.11480394 280.68882106 -0.11350138 C284.53708243 -0.11285824 288.38532533 -0.11387282 292.23358345 -0.11920547 C296.39738291 -0.12493354 300.5611426 -0.12299921 304.72494507 -0.12025452 C305.95255 -0.12316736 307.18015492 -0.1260802 308.44496 -0.12908131 C309.55317849 -0.12709026 310.66139699 -0.12509921 311.80319786 -0.12304783 C312.76540918 -0.12342755 313.72762049 -0.12380727 314.71898973 -0.1241985 C317 -0 317 -0 319 1 C319.33992919 91.51257665 319.64704419 182.02534019 320.12283063 529.00626343 C320.12399256 543.03649868 320.1272043 557.06673219 320.13157158 571.09696678 C320.13761083 590.63840422 320.13987762 610.17983659 320.13556135 629.72127467 C320.13514313 631.6503158 320.13472909 633.57935693 320.13431931 635.50839806 C320.1341172 636.45435853 320.1339151 637.40031901 320.13370688 638.37494495 C320.13253715 644.97135238 320.13381482 651.56775656 320.13615799 658.16416359 C320.13891965 666.04679551 320.13828329 673.92941752 320.13296442 681.81204832 C320.13036443 685.79370134 320.12936963 689.77533768 320.13267231 693.75699055 C320.13562839 697.37481804 320.13405355 700.99261272 320.12868814 704.61043718 C320.12702729 706.54305185 320.13031829 708.47566879 320.13374293 710.40828115 C320.13113534 711.53786376 320.12852775 712.66744638 320.12584114 713.83125877 C320.12567879 714.81274781 320.12551644 715.79423684 320.12534916 716.80546796 C320 719 320 719 319 720 C317.30583697 720.09726802 315.60758117 720.12371513 313.91062832 720.12304783 C312.80091748 720.12503888 311.69120664 720.12702993 310.54786819 720.12908131 C308.69625512 720.12471205 308.69625512 720.12471205 306.80723572 720.12025452 C305.50781164 720.12110894 304.20838757 720.12196337 302.869587 720.12284368 C299.24613488 720.1250911 295.62271203 720.12106402 291.99926364 720.11606562 C288.09808593 720.11176482 284.19691 720.11320728 280.29573059 720.1139679 C273.53113854 720.11449337 266.76655611 720.11134416 260.00196648 720.10573006 C250.22139134 720.09761818 240.44082088 720.09500016 230.66024274 720.09374207 C214.79359344 720.09155105 198.92694926 720.08488964 183.06030273 720.07543945 C167.64331081 720.06626661 152.22632027 720.05918515 136.80932617 720.05493164 C135.8597243 720.05466892 134.91012243 720.05440619 133.93174475 720.05413551 C129.16808073 720.05283051 124.40441671 720.0515668 119.64075267 720.05032361 C80.09383152 720.03994946 40.5469161 720.02232981 1 720 C0.24898338 715.32151688 -0.12324689 710.84448615 -0.11688995 706.10809708 C-0.11764122 705.11717673 -0.11764122 705.11717673 -0.11840767 704.1062378 C-0.11888017 701.89877735 -0.11221245 699.69139746 -0.10559082 697.48394775 C-0.10449899 695.87917582 -0.10386169 694.27440353 -0.10363817 692.66963124 C-0.1021887 689.17844068 -0.09755718 685.68727348 -0.09052467 682.19608974 C-0.07911257 676.49907703 -0.07491912 670.80207149 -0.07157898 665.10504913 C-0.06603957 656.77769787 -0.05736714 648.45035497 -0.04673767 640.12300873 C-0.01959079 618.50256391 -0.01253023 596.88210424 -0.00516999 575.26164514 C-0.00389778 571.65371861 -0.00245829 568.04579219 -0.00099468 564.43786573 C0.01998257 510.5413434 -0.08152268 456.64527391 -0.21024132 402.74892831 C-0.22160349 397.97226564 -0.23277052 393.19560252 -0.24393117 388.41893938 C-0.30845973 360.80615878 -0.37604879 333.19338634 -0.44538307 305.58061743 C-0.488552 288.3825227 -0.53097033 271.18442627 -0.57275391 253.98632812 C-0.5757409 252.75706819 -0.5787279 251.52780826 -0.58180541 250.26129803 C-0.61462927 236.74387726 -0.64722131 223.22645595 -0.67954254 209.70903397 C-0.68240234 208.51317347 -0.68526215 207.31731297 -0.68820861 206.08521427 C-0.69964951 201.29972443 -0.71108766 196.51423458 -0.72249681 191.72874466 C-0.7525378 179.13022435 -0.78295112 166.53170526 -0.81480408 153.93318939 C-0.87785435 128.977586 -0.93615345 104.02198394 -0.98385975 79.06634615 C-0.99597004 72.81933717 -1.01020722 66.57233521 -1.02523804 60.32533264 C-1.04305811 52.87473825 -1.05724055 45.42414786 -1.06649265 37.9735377 C-1.07119389 34.23715089 -1.07743362 30.50078474 -1.08801365 26.76440954 C-1.0992568 22.77045013 -1.1027559 18.77650669 -1.10534668 14.78253174 C-1.10981151 13.61681027 -1.11427633 12.4510888 -1.11887646 11.25004244 C-1.11825616 10.19555139 -1.11763586 9.14106034 -1.11699677 8.05461502 C-1.11855758 7.14371526 -1.1201184 6.2328155 -1.12172651 5.29431272 C-1 3 -1 3 0 0 Z " fill="#FEFEFE" transform="translate(13,17)"/>
<path d="M0 0 C0.66 0 1.32 0 2 0 C1.60955226 6.32193042 -0.62425537 10.20702751 -4.0625 15.4375 C-37.41991525 68.11450845 -52.32848045 136.45692418 -42 198 C-41.86190918 198.86866699 -41.72381836 199.73733398 -41.58154297 200.63232422 C-39.7171215 212.35465176 -37.54124435 223.66273264 -34 235 C-33.65453125 236.27101563 -33.3090625 237.54203125 -32.953125 238.8515625 C-28.88731709 253.79456466 -23.08441393 268.23278291 -16 282 C-15.63648438 281.21238281 -15.27296875 280.42476562 -14.8984375 279.61328125 C-14.39570312 278.52402344 -13.89296875 277.43476562 -13.375 276.3125 C-12.83746094 275.13171875 -12.29992188 273.9509375 -11.74609375 272.734375 C-10.6099527 270.26467145 -9.4139864 267.87027527 -8.16015625 265.453125 C-7.30744141 263.77476562 -7.30744141 263.77476562 -6.4375 262.0625 C-5.89996094 261.04285156 -5.36242188 260.02320313 -4.80859375 258.97265625 C-3.64946318 255.90795875 -3.64946318 255.90795875 -5.34765625 252.74609375 C-5.89292969 251.83988281 -6.43820312 250.93367187 -7 250 C-7 249.34 -7 248.68 -7 248 C-7.66 248 -8.32 248 -9 248 C-9.33 246.02 -9.66 244.04 -10 242 C-9.01 242 -8.02 242 -7 242 C-5.61328125 243.6796875 -5.61328125 243.6796875 -4.3125 245.875 C-3.87550781 246.59429688 -3.43851563 247.31359375 -2.98828125 248.0546875 C-2 250 -2 250 -2 252 C-1.34 252 -0.68 252 0 252 C0.27457031 251.27425781 0.54914063 250.54851562 0.83203125 249.80078125 C3.82783967 242.6168527 8.14922433 236.47018743 13.39453125 230.76171875 C14.77903028 229.24247528 16.05762218 227.62794961 17.3125 226 C17.869375 225.34 18.42625 224.68 19 224 C19.66 224 20.32 224 21 224 C21.33 222.68 21.66 221.36 22 220 C22.66 220 23.32 220 24 220 C24 219.34 24 218.68 24 218 C28.30232558 213.23255814 28.30232558 213.23255814 32 212 C32.33 211.34 32.66 210.68 33 210 C35.80376092 207.04468444 38.5829718 204.23874261 42 202 C42.66 202 43.32 202 44 202 C44 201.34 44 200.68 44 200 C45.65 199.34 47.3 198.68 49 198 C49 197.34 49 196.68 49 196 C51.17555261 194.40729601 53.3330071 192.97264312 55.625 191.5625 C56.33503174 191.12510498 57.04506348 190.68770996 57.77661133 190.23706055 C100.80688662 164.25868851 150.6062309 155.23885347 199.71655273 167.24609375 C213.83466035 170.94743233 227.33047828 176.05612168 240.16357422 183.00585938 C241.93418645 183.96437214 243.71884865 184.8967906 245.50390625 185.828125 C258.30419309 192.75979341 269.70234106 201.77308283 280.4375 211.5625 C280.97511963 212.05073242 281.51273926 212.53896484 282.06665039 213.04199219 C284.72513944 215.53560358 286.41645641 217.75189431 288 221 C288.99 221.33 289.98 221.66 291 222 C292.50323315 223.6292184 293.9314804 225.32847366 295.3125 227.0625 C296.10140625 228.04992187 296.8903125 229.03734375 297.703125 230.0546875 C300.51975133 233.66648385 303.29783165 237.30173822 306 241 C320.40574203 213.50477663 334.70017082 173.14364313 326.42480469 141.82299805 C326 140 326 140 327 138 C327.99 138.33 328.98 138.66 330 139 C333.60560223 154.64525656 331.61234787 173.22607782 329 189 C328.82855469 190.16015625 328.65710937 191.3203125 328.48046875 192.515625 C325.74210861 208.55711537 320.4277874 224.9391847 312.35083008 239.09155273 C310.20603727 242.95303492 309.80302755 244.78632548 311 249 C312.09067416 251.42310686 312.09067416 251.42310686 313.4765625 253.8515625 C313.97921631 254.77533691 314.48187012 255.69911133 314.99975586 256.65087891 C315.53608643 257.63233887 316.07241699 258.61379883 316.625 259.625 C330.67640038 286.04021946 337.4508721 314.01783571 337.375 343.9375 C337.37418427 345.15397217 337.37418427 345.15397217 337.37335205 346.39501953 C337.33174477 359.94102005 336.28355007 372.8133229 333 386 C332.67854004 387.33538818 332.67854004 387.33538818 332.35058594 388.69775391 C329.21984085 401.42808347 324.77833118 413.24675809 319 425 C318.68305176 425.65693848 318.36610352 426.31387695 318.03955078 426.99072266 C313.37272921 436.57839187 307.61823278 444.97139828 301.14208984 453.42285156 C299.83175965 455.17644492 299.83175965 455.17644492 298.30078125 457.9296875 C297.87152344 458.61289063 297.44226562 459.29609375 297 460 C296.34 460 295.68 460 295 460 C294.62875 460.8353125 294.62875 460.8353125 294.25 461.6875 C291.4183298 466.92608987 287.4076354 470.49605373 282.94140625 474.3125 C281.40571943 475.64734247 279.93877351 477.06122649 278.5 478.5 C246.43148915 510.56851085 199.87614421 526.39072282 155.1875 526.4375 C133.3726221 526.33665414 112.39110454 522.92465353 92 515 C90.845 514.57460937 89.69 514.14921875 88.5 513.7109375 C63.97839879 504.3511299 40.72406642 488.41207275 23 469 C23 468.34 23 467.68 23 467 C22.11054687 466.62875 22.11054687 466.62875 21.203125 466.25 C18.6656738 464.81031137 17.45955898 463.34848507 15.75 461 C15.22921875 460.29875 14.7084375 459.5975 14.171875 458.875 C13 457 13 457 13 455 C12.10667969 454.64615234 12.10667969 454.64615234 11.1953125 454.28515625 C8.46889547 452.68908649 7.51311297 451.13338943 5.875 448.4375 C4.97974609 446.96796875 4.97974609 446.96796875 4.06640625 445.46875 C3.57744873 444.64697266 3.57744873 444.64697266 3.07861328 443.80859375 C1.88774801 441.81177847 0.67612664 439.82824043 -0.53515625 437.84375 C-8.57171184 424.56170684 -8.57171184 424.56170684 -11.15234375 417.3359375 C-11.98124112 414.95225696 -11.98124112 414.95225696 -13.12890625 412.5390625 C-29.55037395 376.60744979 -29.29239623 334.65022611 -20 297 C-18.01881664 288.93375345 -20.23570703 284.25755684 -24 277 C-24.86613105 275.15139195 -25.72050799 273.29722691 -26.5625 271.4375 C-26.93503906 270.63183594 -27.30757812 269.82617188 -27.69140625 268.99609375 C-31.2059328 260.94940161 -34.08373659 252.88039378 -36.5 244.4375 C-36.80188232 243.39190918 -37.10376465 242.34631836 -37.41479492 241.26904297 C-39.89693473 232.57055892 -42.07633483 223.83714201 -44 215 C-44.20238281 214.13246094 -44.40476562 213.26492188 -44.61328125 212.37109375 C-46.4620267 204.03057036 -47.17810361 195.4903985 -48 187 C-48.11472656 185.86433594 -48.22945312 184.72867188 -48.34765625 183.55859375 C-49.09419559 174.65269488 -49.1040782 165.74474858 -49.125 156.8125 C-49.12967285 155.54116211 -49.1343457 154.26982422 -49.13916016 152.95996094 C-49.12612369 145.25240026 -48.75336088 137.66882741 -48 130 C-47.85300935 128.25009683 -47.70699973 126.50011062 -47.5625 124.75 C-47.25235711 121.63356416 -46.74078111 118.71394645 -45.9375 115.6875 C-45.13989274 112.55024478 -44.90338123 110.18841946 -45 107 C-44.505 106.505 -44.505 106.505 -44 106 C-43.52989543 103.39795624 -43.09964131 100.79874939 -42.6875 98.1875 C-41.62140054 91.78487627 -40.16466791 85.79817513 -37.9609375 79.67578125 C-37.07798841 77.21716284 -36.33355265 74.76327792 -35.625 72.25 C-31.37905357 57.88802819 -25.37736692 44.34422531 -18.26049805 31.20141602 C-15.93182576 26.8778794 -13.86618674 22.54324057 -12 18 C-11.34 18 -10.68 18 -10 18 C-9.71125 17.0925 -9.4225 16.185 -9.125 15.25 C-8.23468224 12.67797092 -7.28505587 10.38653234 -6 8 C-5.34 8 -4.68 8 -4 8 C-3.896875 7.4225 -3.79375 6.845 -3.6875 6.25 C-2.89103535 3.64338842 -1.80934723 2.0264689 0 0 Z " fill="#FDFDFD" transform="translate(1124,574)"/>
<path d="M0 0 C2.81725739 -0.00412649 5.63451175 -0.00965403 8.45176697 -0.01504517 C15.9954043 -0.0283994 23.53903617 -0.034611 31.08268332 -0.03905582 C35.80228836 -0.04184686 40.52189143 -0.04608783 45.24149513 -0.05056 C58.34957976 -0.06270189 71.45766287 -0.07302432 84.56575298 -0.07643509 C85.81364575 -0.07676444 85.81364575 -0.07676444 87.08674847 -0.07710044 C88.33718708 -0.07742786 88.33718708 -0.07742786 89.61288708 -0.07776189 C91.30149504 -0.07820532 92.99010299 -0.07865189 94.67871094 -0.07910156 C95.51627479 -0.07932299 96.35383863 -0.07954442 97.2167832 -0.07977256 C110.87017747 -0.08374389 124.52351916 -0.1012909 138.17689302 -0.12446108 C152.24538373 -0.1481417 166.31384788 -0.16063472 180.38235885 -0.16180301 C188.26215982 -0.1627194 196.14189136 -0.16846661 204.0216732 -0.18662262 C210.70693826 -0.20197605 217.3921122 -0.20717077 224.07739153 -0.19888452 C227.48656403 -0.19496673 230.89555265 -0.1959637 234.30470276 -0.20994186 C237.99375746 -0.22253867 241.68233326 -0.21685233 245.37138367 -0.20635986 C246.45499276 -0.21441627 247.53860186 -0.22247267 248.6550476 -0.23077321 C249.63877091 -0.22418337 250.62249422 -0.21759352 251.63602734 -0.21080399 C252.48742611 -0.21140107 253.33882489 -0.21199816 254.21602362 -0.21261334 C256.87957932 0.24573485 257.76455457 1.0380913 259.38793945 3.16113281 C259.75428963 5.18457508 259.75428963 5.18457508 259.74197388 7.5436554 C259.74465271 8.43942291 259.74733154 9.33519043 259.75009155 10.25810242 C259.73155624 11.7285778 259.73155624 11.7285778 259.71264648 13.22875977 C259.71147827 14.26319214 259.71031006 15.29762451 259.70910645 16.36340332 C259.7019031 19.79227523 259.67367065 23.22065353 259.64575195 26.64941406 C259.63761716 29.02971452 259.6309534 31.41002042 259.6257019 33.79032898 C259.60855653 40.0665009 259.57429594 46.34245823 259.53564453 52.61853027 C259.47653936 62.65401606 259.44255267 72.68960972 259.40987778 82.72521019 C259.39592204 86.23167953 259.37432294 89.73803889 259.35159302 93.24446106 C259.34156662 95.39808068 259.33170087 97.55170106 259.32202148 99.70532227 C259.31371307 100.6795665 259.30540466 101.65381073 259.29684448 102.65757751 C259.28466248 106.37793519 259.33110354 109.82600848 259.95455933 113.50212097 C260.43277396 116.43621574 260.00497425 118.27016413 259.38793945 121.16113281 C259.30967568 124.0204387 259.2819433 126.85337448 259.30615234 129.71166992 C259.3092189 130.56107651 259.31228546 131.41048309 259.31544495 132.28562927 C259.3225832 134.12497341 259.33196437 135.96430992 259.34333992 137.80363274 C259.36076461 140.71671429 259.37104034 143.62974072 259.3792572 146.54286194 C259.4036811 154.82379366 259.43927685 163.104651 259.48388672 171.38549805 C259.51069793 176.45517551 259.52772198 181.52481021 259.53875542 186.59454536 C259.54495547 188.52382552 259.55494859 190.45309742 259.5688343 192.38233757 C259.58809345 195.08201374 259.59495254 197.78146546 259.59912109 200.48120117 C259.61226349 201.67135834 259.61226349 201.67135834 259.62567139 202.88555908 C259.61778044 207.37185055 259.08593471 210.93248897 257.38793945 215.16113281 C255.1793689 215.01893717 252.97108958 214.87221434 250.76293945 214.72363281 C248.91829102 214.60181641 248.91829102 214.60181641 247.03637695 214.47753906 C243.38793945 214.16113281 243.38793945 214.16113281 240.41918945 213.62597656 C236.7645712 213.06553897 233.19646125 213.09444498 229.51293945 213.16113281 C225.16298728 213.2092836 220.88989286 213.23334756 216.57543945 212.59863281 C213.37450175 211.919894 213.37450175 211.919894 210.38793945 213.16113281 C209.39793945 212.50113281 208.40793945 211.84113281 207.38793945 211.16113281 C205.25634791 210.86519103 205.25634791 210.86519103 202.87016201 210.91783047 C201.93883904 210.91446507 201.00751607 210.91109967 200.04797119 210.90763229 C198.51063696 210.917394 198.51063696 210.917394 196.94224548 210.92735291 C195.85486841 210.92634962 194.76749134 210.92534634 193.64716345 210.92431265 C189.98508147 210.92335619 186.32318907 210.93672959 182.66113281 210.94995117 C180.0432796 210.95215121 177.4254255 210.95345762 174.80757141 210.95393372 C169.16161321 210.95629778 163.51570424 210.96588332 157.86976433 210.98023796 C149.70447184 211.00090005 141.53920049 211.00959634 133.37388534 211.01515932 C120.12391725 211.02441917 106.87397384 211.04188155 93.62402344 211.06518555 C92.83074103 211.06657886 92.03745863 211.06797217 91.22013737 211.06940771 C90.42584664 211.07080324 89.63155591 211.07219877 88.81319577 211.07363659 C77.5492945 211.09340851 66.2853924 211.11123613 55.02148438 211.12670898 C54.22886253 211.12779983 53.43624068 211.12889068 52.61959999 211.13001459 C39.41869361 211.14801789 26.21778473 211.16198723 13.01687151 211.17388064 C4.8686763 211.18148383 -3.27949441 211.19324887 -11.42767536 211.2103423 C-17.6644283 211.2232451 -23.90117847 211.23133081 -30.13794136 211.23765373 C-32.70268551 211.24113773 -35.26742795 211.24636628 -37.83216476 211.25342178 C-41.31923832 211.26280704 -44.80626577 211.26614122 -48.29335022 211.26792908 C-49.83403053 211.2743447 -49.83403053 211.2743447 -51.40583569 211.28088993 C-52.33455091 211.28013228 -53.26326614 211.27937463 -54.22012424 211.27859402 C-55.02578345 211.28005788 -55.83144265 211.28152175 -56.66151577 211.28302997 C-58.61206055 211.16113281 -58.61206055 211.16113281 -60.61206055 210.16113281 C-60.63539138 183.2062279 -60.65304063 156.25132448 -60.66387272 129.29641151 C-60.66903528 116.78158862 -60.67607723 104.266772 -60.6875 91.75195312 C-60.69744804 80.84767922 -60.70391426 69.94340984 -60.70614904 59.03913152 C-60.70745594 53.26213163 -60.71054051 47.48514471 -60.7177906 41.70814896 C-60.7245527 36.27624344 -60.72667712 30.8443563 -60.72516823 25.41244698 C-60.72544447 23.41371498 -60.72744847 21.41498241 -60.73126602 19.41625404 C-60.7362062 16.69753385 -60.7350576 13.97888401 -60.73231506 11.26016235 C-60.7352279 10.46056174 -60.73814075 9.66096112 -60.74114186 8.83713019 C-60.72618176 3.38937523 -60.72618176 3.38937523 -59.61206055 1.16113281 C-39.73349885 0.384439 -19.8952855 0.00782615 0 0 Z " fill="#FDFDFD" transform="translate(810.612060546875,525.8388671875)"/>
<path d="M0 0 C14.72916943 -0.00530419 29.45832756 -0.01597949 44.18749137 -0.02970473 C60.79574416 -0.04511364 77.40398208 -0.05323655 94.01224233 -0.05134676 C102.5267853 -0.05052669 111.04129975 -0.05274683 119.55583663 -0.06358497 C126.64604398 -0.07258864 133.7362118 -0.07495778 140.82642242 -0.06816272 C144.40569943 -0.06492645 147.98489967 -0.06491028 151.56416936 -0.07357471 C155.41237607 -0.08280263 159.26046764 -0.07670624 163.10867973 -0.06893508 C164.79771396 -0.07665019 164.79771396 -0.07665019 166.5208701 -0.08452116 C167.54097112 -0.07992252 168.56107213 -0.07532388 169.6120853 -0.07058589 C170.49396949 -0.07080326 171.37585368 -0.07102063 172.28446163 -0.07124458 C174.51891227 0.17830308 174.51891227 0.17830308 177.51891227 2.17830308 C177.89265843 4.45816268 177.89265843 4.45816268 177.89084907 7.37231191 C177.89743891 8.4799137 177.90402876 9.5875155 177.91081829 10.72868098 C177.89873369 12.56906519 177.89873369 12.56906519 177.88640495 14.44662888 C177.88967379 15.74211827 177.89294263 17.03760765 177.89631052 18.37235428 C177.90499255 21.98029651 177.89486193 25.58798301 177.88176818 29.19590302 C177.87090437 33.08209121 177.87727764 36.96825486 177.88155265 40.85445054 C177.88719678 48.47197559 177.87685109 56.08940031 177.86126469 63.70690825 C177.84376294 72.56887006 177.84230624 81.43081217 177.8416491 90.29278857 C177.8399596 106.09896815 177.82412662 121.90510189 177.80016227 137.71126206 C177.77689895 153.06608364 177.7627372 168.42087613 177.75914665 183.77571519 C177.75881249 185.19439531 177.75881249 185.19439531 177.75847159 186.64173564 C177.75802901 188.5469018 177.75758698 190.45206797 177.75714552 192.35723413 C177.75681617 193.76677591 177.75681617 193.76677591 177.75648017 195.20479329 C177.75626419 196.1420406 177.7560482 197.0792879 177.75582567 198.04493665 C177.75212865 212.65416559 177.74076899 227.26338981 177.72834978 241.87261358 C177.72390801 247.17673878 177.72047243 252.48086353 177.71772765 257.78498986 C177.71330301 266.19655334 177.7055574 274.60809942 177.69095324 283.01965191 C177.68432777 286.86577391 177.67927737 290.71188048 177.6784925 294.55800851 C177.67756603 298.71768083 177.66890558 302.87729947 177.65935417 307.03696091 C177.66065389 308.88069121 177.66065389 308.88069121 177.66197987 310.76166858 C177.65813872 311.86666263 177.65429758 312.97165667 177.65034004 314.11013539 C177.64909354 315.07164228 177.64784704 316.03314918 177.64656277 317.02379264 C177.51891227 319.17830308 177.51891227 319.17830308 176.51891227 320.17830308 C175.01472488 320.27142197 173.50619871 320.29576336 171.99913688 320.29182847 C170.55775604 320.29171517 170.55775604 320.29171517 169.08725639 320.29159959 C168.04247627 320.2864383 166.99769615 320.28127702 165.92125602 320.27595933 C164.32526321 320.27383691 164.32526321 320.27383691 162.69702812 320.27167161 C159.28346144 320.26605371 155.86995927 320.25349819 152.45641227 320.24080308 C150.14847051 320.23579038 147.84052772 320.23122708 145.53258415 320.2271312 C139.86133801 320.21607847 134.19012975 320.19932295 128.51891227 320.17830308 C128.51891227 319.84830308 128.51891227 319.51830308 128.51891227 319.17830308 C144.02891227 319.17830308 159.53891227 319.17830308 175.51891227 319.17830308 C175.18891227 214.89830308 174.85891227 110.61830308 174.51891227 3.17830308 C81.7332496 3.14936396 81.7332496 3.14936396 -11.05241387 3.13013811 C-24.85582479 3.12810004 -38.6592357 3.12601384 -52.4626466 3.12377708 C-54.12908132 3.12350718 -55.79551604 3.12323881 -57.46195076 3.12297199 C-81.7291133 3.11907487 -105.99627374 3.11250152 -130.26343498 3.10371449 C-168.80603763 3.08980692 -207.3486387 3.08119746 -245.89124398 3.08064683 C-246.67474325 3.08063124 -247.45824251 3.08061565 -248.26548418 3.08059959 C-327.29865983 3.07911753 -406.33098398 3.16178959 -581.8874756 3.80609949 C-585.31540768 3.82047032 -588.74333994 3.83479888 -592.1712722 3.84912623 C-592.84445055 3.8519402 -593.51762889 3.85475417 -594.21120658 3.85765342 C-600.24334251 3.8828617 -606.27547875 3.90799252 -612.30761521 3.93307471 C-614.93698323 3.9440174 -617.56635114 3.95498896 -620.19571893 3.96598998 C-860.11811772 4.96819445 -860.11811772 4.96819445 -876.48108773 3.17830308 C-876.48016594 4.34958379 -876.47924414 5.52086449 -876.47829442 6.72763856 C-876.45640337 34.84301142 -876.44003293 62.95838407 -876.4300224 91.07376364 C-876.42877243 94.57150076 -876.42747803 98.06923786 -876.42615609 101.56697495 C-876.42589378 102.26300264 -876.42563147 102.95903033 -876.42536121 103.67614977 C-876.42106791 114.79037686 -876.41321735 125.9045985 -876.40393493 137.01882242 C-876.39441832 148.51359807 -876.38906948 160.00837066 -876.38699923 171.50315006 C-876.38572189 177.92139541 -876.38283425 184.33962866 -876.37535767 190.75787003 C-876.33411628 227.57639471 -876.75374716 264.36808373 -877.48108773 301.17830308 C-878.14108773 300.84830308 -878.80108773 300.51830308 -879.48108773 300.17830308 C-879.50442907 273.25793961 -879.52207299 246.33757766 -879.5328999 219.41720612 C-879.53806022 206.91813474 -879.54509793 194.41906965 -879.55652718 181.9200023 C-879.56648204 171.02816108 -879.57294308 160.13632441 -879.57517622 149.24447878 C-879.57648196 143.4752399 -879.57955922 137.70601404 -879.58681779 131.93677934 C-879.59359062 126.50979223 -879.59570209 121.08282353 -879.59419541 115.6558326 C-879.59447117 113.66116581 -879.59646881 111.66649841 -879.6002932 109.67183526 C-879.60525013 106.95381457 -879.60407856 104.23586388 -879.60134225 101.51784165 C-879.60425509 100.72406672 -879.60716793 99.93029179 -879.61016904 99.11246307 C-879.60060031 95.60884968 -879.32663577 92.55656915 -878.48108773 89.17830308 C-878.39663852 86.46329495 -878.36513318 83.7752258 -878.38343148 81.06087144 C-878.38489175 80.24580628 -878.38635201 79.43074113 -878.38785653 78.59097703 C-878.39165733 76.82418555 -878.39776843 75.05739787 -878.40592293 73.29062112 C-878.41868863 70.49605834 -878.42520253 67.70154302 -878.43006234 64.90695603 C-878.44148906 58.97655041 -878.46073598 53.04618391 -878.48108773 47.11580308 C-878.50466635 40.24069465 -878.52506251 33.36560859 -878.53702645 26.49046929 C-878.54351969 23.73452302 -878.55602679 20.97864504 -878.56873421 18.22272141 C-878.57236599 16.53726161 -878.57571781 14.85180118 -878.57874398 13.16634019 C-878.5839103 12.39794816 -878.58907662 11.62955613 -878.5943995 10.83787949 C-878.59471559 7.67613628 -878.48883567 5.2015469 -877.48108773 2.17830308 C-873.43958896 1.42073037 -869.6275543 1.05431416 -865.51795296 1.05804856 C-864.33861113 1.05667405 -863.1592693 1.05529955 -861.94418983 1.05388339 C-860.65570208 1.05747851 -859.36721432 1.06107363 -858.03968148 1.06477769 C-856.64720136 1.06505929 -855.2547211 1.06489699 -853.86224107 1.06433089 C-850.02786686 1.06403831 -846.19352353 1.06998588 -842.35915647 1.07690282 C-838.19844575 1.08328565 -834.03773384 1.08380444 -829.87701897 1.08500321 C-822.60257834 1.08785984 -815.32814781 1.09429201 -808.05371194 1.10300095 C-797.3194724 1.11575845 -786.58523569 1.12223085 -775.85098995 1.12702502 C-759.03104443 1.13456759 -742.21110243 1.1449683 -725.39115997 1.15754153 C-680.51314418 1.19096678 -635.63512238 1.20430666 -590.75709502 1.20917328 C-587.33076076 1.20955416 -583.9044265 1.20998727 -580.47809224 1.21042474 C-519.90061825 1.21771737 -459.32384895 1.16932825 -398.74671273 0.95955308 C-397.95175779 0.95680407 -397.15680286 0.95405507 -396.33775838 0.95122276 C-376.73246647 0.88323437 -357.12719964 0.809023 -337.52194069 0.7321694 C-308.26746286 0.61749866 -279.01296087 0.50944584 -249.75843148 0.40877183 C-248.9904311 0.40612406 -248.22243072 0.4034763 -247.4311576 0.4007483 C-164.95431663 0.11691398 -82.47728626 0.02930942 0 0 Z " fill="#2F2F2F" transform="translate(892.4810877293348,751.821696922183)"/>
<path d="M0 0 C40.34988156 -0.02286806 80.69976228 -0.04049909 121.04964902 -0.05106533 C125.8088155 -0.0523161 130.56798197 -0.05361041 135.32714844 -0.05493164 C136.2746487 -0.05519395 137.22214896 -0.05545626 138.19836135 -0.05572652 C153.5582458 -0.06008277 168.91812651 -0.06797008 184.27800874 -0.0771528 C200.028131 -0.08649057 215.77825131 -0.09205587 231.52837622 -0.09408849 C241.25406268 -0.09546346 250.9797386 -0.09981265 260.70542182 -0.10791647 C267.36655608 -0.11318545 274.02768487 -0.11480394 280.68882106 -0.11350138 C284.53708243 -0.11285824 288.38532533 -0.11387282 292.23358345 -0.11920547 C296.39738291 -0.12493354 300.5611426 -0.12299921 304.72494507 -0.12025452 C305.95255 -0.12316736 307.18015492 -0.1260802 308.44496 -0.12908131 C309.55317849 -0.12709026 310.66139699 -0.12509921 311.80319786 -0.12304783 C312.76540918 -0.12342755 313.72762049 -0.12380727 314.71898973 -0.1241985 C317 -0 317 -0 319 1 C319.33992919 91.51257665 319.64704419 182.02534019 320.12283063 529.00626343 C320.12399256 543.03649868 320.1272043 557.06673219 320.13157158 571.09696678 C320.13761083 590.63840422 320.13987762 610.17983659 320.13556135 629.72127467 C320.13514313 631.6503158 320.13472909 633.57935693 320.13431931 635.50839806 C320.1341172 636.45435853 320.1339151 637.40031901 320.13370688 638.37494495 C320.13253715 644.97135238 320.13381482 651.56775656 320.13615799 658.16416359 C320.13891965 666.04679551 320.13828329 673.92941752 320.13296442 681.81204832 C320.13036443 685.79370134 320.12936963 689.77533768 320.13267231 693.75699055 C320.13562839 697.37481804 320.13405355 700.99261272 320.12868814 704.61043718 C320.12702729 706.54305185 320.13031829 708.47566879 320.13374293 710.40828115 C320.13113534 711.53786376 320.12852775 712.66744638 320.12584114 713.83125877 C320.12567879 714.81274781 320.12551644 715.79423684 320.12534916 716.80546796 C320 719 320 719 319 720 C317.30583697 720.09726802 315.60758117 720.12371513 313.91062832 720.12304783 C312.80091748 720.12503888 311.69120664 720.12702993 310.54786819 720.12908131 C308.69625512 720.12471205 308.69625512 720.12471205 306.80723572 720.12025452 C305.50781164 720.12110894 304.20838757 720.12196337 302.869587 720.12284368 C299.24613488 720.1250911 295.62271203 720.12106402 291.99926364 720.11606562 C288.09808593 720.11176482 284.19691 720.11320728 280.29573059 720.1139679 C273.53113854 720.11449337 266.76655611 720.11134416 260.00196648 720.10573006 C250.22139134 720.09761818 240.44082088 720.09500016 230.66024274 720.09374207 C214.79359344 720.09155105 198.92694926 720.08488964 183.06030273 720.07543945 C167.64331081 720.06626661 152.22632027 720.05918515 136.80932617 720.05493164 C135.8597243 720.05466892 134.91012243 720.05440619 133.93174475 720.05413551 C129.16808073 720.05283051 124.40441671 720.0515668 119.64075267 720.05032361 C80.09383152 720.03994946 40.5469161 720.02232981 1 720 C1 719.67 1 719.34 1 719 C105.28 718.67 209.56 718.34 317 718 C317 481.72 317 245.44 317 2 C263.21 2.33 209.42 2.66 154 3 C98.90939612 3.10941965 98.90939612 3.10941965 72.34625244 3.06866455 C65.07420365 3.05813608 57.80214836 3.05468931 50.53009379 3.05032361 C34.3533849 3.04048079 18.17669521 3.02355269 2 3 C2.00261841 3.9330043 2.00523682 4.86600861 2.00793457 5.82728577 C2.07581618 32.68770232 1.86110991 59.54021854 1.53643799 86.39849854 C1.47443488 91.56968265 1.41508714 96.74089731 1.35546875 101.91210938 C1.23947386 111.94143652 1.12070775 121.97072854 1 132 C0.67 132 0.34 132 0 132 C-0.84570476 115.88166545 -1.1495548 99.81061342 -1.1328125 83.671875 C-1.13348832 81.33538808 -1.13446066 78.99890123 -1.13571167 76.66241455 C-1.13716971 71.82213659 -1.13509204 66.98187732 -1.13037109 62.14160156 C-1.12461048 55.9333082 -1.12800418 49.72505748 -1.13394356 43.51676559 C-1.13754637 38.71795323 -1.13641298 33.9191511 -1.13381577 29.12033844 C-1.13314901 26.82854456 -1.13396614 24.53674976 -1.13629532 22.24495697 C-1.13882407 19.0652974 -1.13498098 15.88570893 -1.12939453 12.70605469 C-1.13141876 11.76179626 -1.13344299 10.81753784 -1.13552856 9.84466553 C-1.13270874 8.98187988 -1.12988892 8.11909424 -1.12698364 7.23016357 C-1.1264181 6.10660021 -1.1264181 6.10660021 -1.12584114 4.96033859 C-1 3 -1 3 0 0 Z " fill="#181818" transform="translate(13,17)"/>
<path d="M0 0 C0.99 0.33 1.98 0.66 3 1 C6.60560223 16.64525656 4.61234787 35.22607782 2 51 C1.82855469 52.16015625 1.65710937 53.3203125 1.48046875 54.515625 C-1.25789139 70.55711537 -6.5722126 86.9391847 -14.64916992 101.09155273 C-16.79396273 104.95303492 -17.19697245 106.78632548 -16 111 C-14.90932584 113.42310686 -14.90932584 113.42310686 -13.5234375 115.8515625 C-13.02078369 116.77533691 -12.51812988 117.69911133 -12.00024414 118.65087891 C-11.46391357 119.63233887 -10.92758301 120.61379883 -10.375 121.625 C3.67640038 148.04021946 10.4508721 176.01783571 10.375 205.9375 C10.37418427 207.15397217 10.37418427 207.15397217 10.37335205 208.39501953 C10.33174477 221.94102005 9.28355007 234.8133229 6 248 C5.67854004 249.33538818 5.67854004 249.33538818 5.35058594 250.69775391 C2.21984085 263.42808347 -2.22166882 275.24675809 -8 287 C-8.31694824 287.65693848 -8.63389648 288.31387695 -8.96044922 288.99072266 C-13.62727079 298.57839187 -19.38176722 306.97139828 -25.85791016 315.42285156 C-27.16824035 317.17644492 -27.16824035 317.17644492 -28.69921875 319.9296875 C-29.12847656 320.61289063 -29.55773438 321.29609375 -30 322 C-30.66 322 -31.32 322 -32 322 C-32.37125 322.8353125 -32.37125 322.8353125 -32.75 323.6875 C-35.5816702 328.92608987 -39.5923646 332.49605373 -44.05859375 336.3125 C-45.59428057 337.64734247 -47.06122649 339.06122649 -48.5 340.5 C-80.17014491 372.17014491 -126.2811293 388.26400433 -170.46417236 388.31741333 C-187.22438725 388.28037494 -187.22438725 388.28037494 -194 387 C-193.34 386.34 -192.68 385.68 -192 385 C-189.8828125 385.0234375 -189.8828125 385.0234375 -187.125 385.375 C-146.15233184 389.36995694 -100.6050601 378.83917462 -67.73828125 353.23828125 C-66 352 -66 352 -64 352 C-64 351.34 -64 350.68 -64 350 C-62.59660637 349.05589883 -61.18866899 348.11791873 -59.75976562 347.21289062 C-55.98263525 344.60956326 -52.80159747 341.24258817 -49.50390625 338.0703125 C-45.20300954 334 -45.20300954 334 -43 334 C-42.64421875 333.16082031 -42.64421875 333.16082031 -42.28125 332.3046875 C-40.70587677 329.47093687 -38.74647151 327.46388964 -36.5 325.125 C-25.90679023 313.73073665 -18.14382819 300.76077968 -11 287 C-10.66339355 286.35417969 -10.32678711 285.70835937 -9.97998047 285.04296875 C10.99551929 244.18858686 12.91241992 194.66769539 -0.51538086 151.21044922 C-6.98496246 131.39946091 -16.78836694 112.1500063 -30 96 C-30.41862305 95.48131348 -30.83724609 94.96262695 -31.26855469 94.42822266 C-41.54343213 81.73505493 -52.608229 70.43651854 -66 61 C-66.62471191 60.5580127 -67.24942383 60.11602539 -67.89306641 59.66064453 C-96.98377321 39.35122171 -131.44148758 27.53185809 -167 27 C-168.0621875 26.96132813 -169.124375 26.92265625 -170.21875 26.8828125 C-215.94122081 25.84366544 -257.50303926 44.17468658 -292 73 C-292.33 72.34 -292.66 71.68 -293 71 C-289.87378374 67.60582235 -287.43458973 65.3937282 -283 64 C-283 63.34 -283 62.68 -283 62 C-281.35 61.34 -279.7 60.68 -278 60 C-278 59.34 -278 58.68 -278 58 C-275.82444739 56.40729601 -273.6669929 54.97264312 -271.375 53.5625 C-270.66496826 53.12510498 -269.95493652 52.68770996 -269.22338867 52.23706055 C-226.19311338 26.25868851 -176.3937691 17.23885347 -127.28344727 29.24609375 C-113.16533965 32.94743233 -99.66952172 38.05612168 -86.83642578 45.00585938 C-85.06581355 45.96437214 -83.28115135 46.8967906 -81.49609375 47.828125 C-68.69580691 54.75979341 -57.29765894 63.77308283 -46.5625 73.5625 C-46.02488037 74.05073242 -45.48726074 74.53896484 -44.93334961 75.04199219 C-42.27486056 77.53560358 -40.58354359 79.75189431 -39 83 C-38.01 83.33 -37.02 83.66 -36 84 C-34.49676685 85.6292184 -33.0685196 87.32847366 -31.6875 89.0625 C-30.89859375 90.04992187 -30.1096875 91.03734375 -29.296875 92.0546875 C-26.48024867 95.66648385 -23.70216835 99.30173822 -21 103 C-6.59425797 75.50477663 7.70017082 35.14364313 -0.57519531 3.82299805 C-1 2 -1 2 0 0 Z " fill="#0E0E0E" transform="translate(1451,712)"/>
<path d="M0 0 C2.81725739 -0.00412649 5.63451175 -0.00965403 8.45176697 -0.01504517 C15.9954043 -0.0283994 23.53903617 -0.034611 31.08268332 -0.03905582 C35.80228836 -0.04184686 40.52189143 -0.04608783 45.24149513 -0.05056 C58.34957976 -0.06270189 71.45766287 -0.07302432 84.56575298 -0.07643509 C85.81364575 -0.07676444 85.81364575 -0.07676444 87.08674847 -0.07710044 C88.33718708 -0.07742786 88.33718708 -0.07742786 89.61288708 -0.07776189 C91.30149504 -0.07820532 92.99010299 -0.07865189 94.67871094 -0.07910156 C95.51627479 -0.07932299 96.35383863 -0.07954442 97.2167832 -0.07977256 C110.87017747 -0.08374389 124.52351916 -0.1012909 138.17689302 -0.12446108 C152.24538373 -0.1481417 166.31384788 -0.16063472 180.38235885 -0.16180301 C188.26215982 -0.1627194 196.14189136 -0.16846661 204.0216732 -0.18662262 C210.70693826 -0.20197605 217.3921122 -0.20717077 224.07739153 -0.19888452 C227.48656403 -0.19496673 230.89555265 -0.1959637 234.30470276 -0.20994186 C237.99375746 -0.22253867 241.68233326 -0.21685233 245.37138367 -0.20635986 C246.45499276 -0.21441627 247.53860186 -0.22247267 248.6550476 -0.23077321 C249.63877091 -0.22418337 250.62249422 -0.21759352 251.63602734 -0.21080399 C252.48742611 -0.21140107 253.33882489 -0.21199816 254.21602362 -0.21261334 C256.87957932 0.24573485 257.76455457 1.0380913 259.38793945 3.16113281 C259.75428963 5.18457508 259.75428963 5.18457508 259.74197388 7.5436554 C259.74465271 8.43942291 259.74733154 9.33519043 259.75009155 10.25810242 C259.73155624 11.7285778 259.73155624 11.7285778 259.71264648 13.22875977 C259.71147827 14.26319214 259.71031006 15.29762451 259.70910645 16.36340332 C259.7019031 19.79227523 259.67367065 23.22065353 259.64575195 26.64941406 C259.63761716 29.02971452 259.6309534 31.41002042 259.6257019 33.79032898 C259.60855653 40.0665009 259.57429594 46.34245823 259.53564453 52.61853027 C259.47653936 62.65401606 259.44255267 72.68960972 259.40987778 82.72521019 C259.39592204 86.23167953 259.37432294 89.73803889 259.35159302 93.24446106 C259.34156662 95.39808068 259.33170087 97.55170106 259.32202148 99.70532227 C259.31371307 100.6795665 259.30540466 101.65381073 259.29684448 102.65757751 C259.28466248 106.37793519 259.33110354 109.82600848 259.95455933 113.50212097 C260.43277396 116.43621574 260.00497425 118.27016413 259.38793945 121.16113281 C259.30967568 124.0204387 259.2819433 126.85337448 259.30615234 129.71166992 C259.3092189 130.56107651 259.31228546 131.41048309 259.31544495 132.28562927 C259.3225832 134.12497341 259.33196437 135.96430992 259.34333992 137.80363274 C259.36076461 140.71671429 259.37104034 143.62974072 259.3792572 146.54286194 C259.4036811 154.82379366 259.43927685 163.104651 259.48388672 171.38549805 C259.51069793 176.45517551 259.52772198 181.52481021 259.53875542 186.59454536 C259.54495547 188.52382552 259.55494859 190.45309742 259.5688343 192.38233757 C259.58809345 195.08201374 259.59495254 197.78146546 259.59912109 200.48120117 C259.61226349 201.67135834 259.61226349 201.67135834 259.62567139 202.88555908 C259.61778044 207.37185055 259.08593471 210.93248897 257.38793945 215.16113281 C255.1793689 215.01893717 252.97108958 214.87221434 250.76293945 214.72363281 C248.91829102 214.60181641 248.91829102 214.60181641 247.03637695 214.47753906 C243.38793945 214.16113281 243.38793945 214.16113281 240.41918945 213.62597656 C236.7645712 213.06553897 233.19646125 213.09444498 229.51293945 213.16113281 C225.16298728 213.2092836 220.88989286 213.23334756 216.57543945 212.59863281 C213.37450175 211.919894 213.37450175 211.919894 210.38793945 213.16113281 C209.39793945 212.50113281 208.40793945 211.84113281 207.38793945 211.16113281 C204.36461725 211.0127944 201.43539082 210.97738439 198.4152832 211.03613281 C197.5364296 211.04370605 196.65757599 211.0512793 195.75209045 211.05908203 C192.94300861 211.08353147 190.13433546 211.1207965 187.32543945 211.16113281 C183.62623206 211.21415447 179.92722608 211.2542193 176.2277832 211.28613281 C175.37256577 211.30272949 174.51734833 211.31932617 173.63621521 211.33642578 C171.55270982 211.35382734 169.46884337 211.26666201 167.38793945 211.16113281 C166.72793945 210.50113281 166.06793945 209.84113281 165.38793945 209.16113281 C195.74793945 209.16113281 226.10793945 209.16113281 257.38793945 209.16113281 C257.05793945 141.18113281 256.72793945 73.20113281 256.38793945 3.16113281 C152.43793945 3.16113281 48.48793945 3.16113281 -58.61206055 3.16113281 C-58.61206055 71.47113281 -58.61206055 139.78113281 -58.61206055 210.16113281 C-59.27206055 210.16113281 -59.93206055 210.16113281 -60.61206055 210.16113281 C-60.63539138 183.2062279 -60.65304063 156.25132448 -60.66387272 129.29641151 C-60.66903528 116.78158862 -60.67607723 104.266772 -60.6875 91.75195312 C-60.69744804 80.84767922 -60.70391426 69.94340984 -60.70614904 59.03913152 C-60.70745594 53.26213163 -60.71054051 47.48514471 -60.7177906 41.70814896 C-60.7245527 36.27624344 -60.72667712 30.8443563 -60.72516823 25.41244698 C-60.72544447 23.41371498 -60.72744847 21.41498241 -60.73126602 19.41625404 C-60.7362062 16.69753385 -60.7350576 13.97888401 -60.73231506 11.26016235 C-60.7352279 10.46056174 -60.73814075 9.66096112 -60.74114186 8.83713019 C-60.72618176 3.38937523 -60.72618176 3.38937523 -59.61206055 1.16113281 C-39.73349885 0.384439 -19.8952855 0.00782615 0 0 Z " fill="#505050" transform="translate(810.612060546875,525.8388671875)"/>
<path d="M0 0 C3.64709589 0.47038516 6.96651276 0.29608622 10.625 -0.0625 C31.16339 -1.86702906 53.94055392 1.56630105 73.625 7.4375 C74.89472656 7.77007812 76.16445312 8.10265625 77.47265625 8.4453125 C89.09673726 11.50377178 100.30618019 15.43356706 111.55053711 19.66894531 C113.23023997 20.29124784 114.92564838 20.87104946 116.625 21.4375 C116.625 23.4175 116.625 25.3975 116.625 27.4375 C115.63242188 27.06238281 114.63984375 26.68726563 113.6171875 26.30078125 C86.02585443 15.89721159 59.10020665 8.20722924 29.640625 5.68359375 C27.625 5.4375 27.625 5.4375 25.75668335 4.9302063 C23.59307017 4.4301199 21.7193226 4.31062013 19.50244141 4.30810547 C18.70125885 4.30495331 17.90007629 4.30180115 17.07461548 4.29855347 C16.217258 4.3005777 15.35990051 4.30260193 14.4765625 4.3046875 C13.58641449 4.30373077 12.69626648 4.30277405 11.77914429 4.30178833 C9.89800953 4.30110857 8.01687242 4.30294862 6.13574219 4.30712891 C3.26752398 4.31246738 0.39946326 4.30718351 -2.46875 4.30078125 C-4.29947951 4.30144232 -6.13020892 4.30272406 -7.9609375 4.3046875 C-9.24090103 4.30165115 -9.24090103 4.30165115 -10.54672241 4.29855347 C-14.94250989 4.31571316 -19.04350371 4.59109215 -23.375 5.4375 C-25.22794779 5.57942792 -27.08228716 5.70412874 -28.9375 5.8125 C-34.57813679 6.24801617 -39.88588729 7.34499055 -45.3671875 8.71875 C-48.36038776 9.43400824 -51.33861104 9.94105618 -54.375 10.4375 C-91.40658384 17.76106463 -127.00038784 34.19826581 -157.375 56.4375 C-158.63405684 57.33471646 -159.89317481 58.23184712 -161.15234375 59.12890625 C-171.32333286 66.46930747 -180.42542361 74.66509796 -189.375 83.4375 C-190.01759766 84.06495117 -190.66019531 84.69240234 -191.32226562 85.33886719 C-193.15841156 87.13656471 -194.9878443 88.9406454 -196.8125 90.75 C-197.36252686 91.29519287 -197.91255371 91.84038574 -198.47924805 92.40209961 C-201.27395715 95.15781167 -201.27395715 95.15781167 -203.375 98.4375 C-204.035 98.4375 -204.695 98.4375 -205.375 98.4375 C-205.705 99.4275 -206.035 100.4175 -206.375 101.4375 C-208.025 101.4375 -209.675 101.4375 -211.375 101.4375 C-209.32911561 96.8073406 -207.06543478 93.87631423 -203.375 90.4375 C-201.55544119 88.5589922 -199.73852148 86.67805781 -197.92578125 84.79296875 C-196.375 83.4375 -196.375 83.4375 -194.375 83.4375 C-194.2821875 82.57125 -194.2821875 82.57125 -194.1875 81.6875 C-193.04115826 78.51301517 -191.11543158 77.30901425 -188.375 75.4375 C-187.715 75.4375 -187.055 75.4375 -186.375 75.4375 C-186.375 74.7775 -186.375 74.1175 -186.375 73.4375 C-184.2578125 71.4921875 -184.2578125 71.4921875 -181.5 69.3125 C-180.14261719 68.22582031 -180.14261719 68.22582031 -178.7578125 67.1171875 C-176.375 65.4375 -176.375 65.4375 -174.375 65.4375 C-174.1275 64.839375 -173.88 64.24125 -173.625 63.625 C-172.19427475 61.12123081 -170.8058418 59.95677612 -168.375 58.4375 C-167.715 58.4375 -167.055 58.4375 -166.375 58.4375 C-166.375 57.7775 -166.375 57.1175 -166.375 56.4375 C-164.4765625 54.9296875 -164.4765625 54.9296875 -162 53.3125 C-161.18789062 52.77367187 -160.37578125 52.23484375 -159.5390625 51.6796875 C-157.375 50.4375 -157.375 50.4375 -155.375 50.4375 C-155.375 49.7775 -155.375 49.1175 -155.375 48.4375 C-148.625 44.4375 -148.625 44.4375 -146.375 44.4375 C-146.375 43.7775 -146.375 43.1175 -146.375 42.4375 C-144.25267021 41.26573482 -142.12742209 40.09995215 -140 38.9375 C-139.39671875 38.60363281 -138.7934375 38.26976562 -138.171875 37.92578125 C-133.6015625 35.4375 -133.6015625 35.4375 -131.375 35.4375 C-131.375 34.7775 -131.375 34.1175 -131.375 33.4375 C-113.73819394 25.03382384 -96.24015258 16.7413029 -77.375 11.4375 C-74.84930946 10.672472 -72.32655926 9.89860373 -69.8046875 9.12109375 C-67.375 8.4375 -67.375 8.4375 -64.87109375 7.94140625 C-62.35797881 7.4340638 -60.00086975 6.7253416 -57.5625 5.9375 C-53.93518959 4.83492547 -50.47430897 4.05769383 -46.6875 3.68359375 C-43.65167228 3.36052425 -40.64401845 2.89101483 -37.625 2.4375 C-32.02255579 1.62336656 -26.44876882 1.05808819 -20.80078125 0.68359375 C-5.84584296 -0.8335739 -5.84584296 -0.8335739 0 0 Z " fill="#000000" transform="translate(1352.375,451.5625)"/>
<path d="M0 0 C1.3786419 -0.00173077 1.3786419 -0.00173077 2.78513515 -0.0034965 C5.89962814 -0.00616707 9.0140706 -0.00163738 12.12856102 0.00279331 C14.37005385 0.0023577 16.61154664 0.00148298 18.85303915 0.00020415 C25.03958147 -0.00204278 31.22610664 0.00198317 37.41264677 0.00698221 C43.39065137 0.01084249 49.36865476 0.01002285 55.34666015 0.00930037 C67.57994853 0.00798476 79.81323152 0.01133433 92.04651833 0.01731777 C104.16376459 0.0232293 116.28100861 0.02708261 128.3982563 0.02817059 C129.15090512 0.02823933 129.90355395 0.02830806 130.67901031 0.02837889 C134.50113678 0.02871721 138.32326325 0.0290186 142.14538972 0.02930576 C169.23665465 0.03140769 196.32791664 0.03814929 223.41917992 0.04760838 C249.74242194 0.05678872 276.06566317 0.06387433 302.38890648 0.06811619 C303.19991579 0.06824771 304.01092509 0.06837924 304.84651044 0.06851475 C312.99079735 0.06983324 321.13508427 0.07110906 329.2793712 0.07235361 C345.8710893 0.07489001 362.46280735 0.07771126 379.05452538 0.08070469 C380.19888423 0.08091062 380.19888423 0.08091062 381.36636145 0.08112072 C432.33546625 0.09032561 483.30456933 0.10619205 534.2736721 0.12304783 C532.2736721 2.12304783 532.2736721 2.12304783 530.01150769 2.36208487 C529.06188855 2.35698385 528.11226941 2.35188283 527.13387394 2.34662724 C526.04593536 2.34578034 524.95799679 2.34493345 523.83709037 2.3440609 C522.6401899 2.33304187 521.44328943 2.32202284 520.21011925 2.3106699 C518.33271449 2.30550877 518.33271449 2.30550877 516.41738236 2.30024338 C513.69316553 2.29164339 510.96923356 2.27947547 508.24508917 2.26135254 C503.88809031 2.23260748 499.53111625 2.2178588 495.1740427 2.2059412 C493.68619036 2.20174099 492.19833809 2.19751752 490.71048588 2.19327116 C489.96886367 2.19116111 489.22724146 2.18905106 488.46314584 2.18687707 C486.1861818 2.17988255 483.90922611 2.17156558 481.63226801 2.16285944 C467.21979516 2.10890544 452.80842231 2.15104036 438.39598656 2.2148447 C435.90401824 2.22495279 433.41204944 2.23494295 430.92008018 2.24481869 C425.81097803 2.26526658 420.70187964 2.28643481 415.59278297 2.30820942 C407.28674237 2.34352056 398.98069378 2.3766269 390.67464256 2.40933323 C389.21953591 2.41507043 387.76442925 2.42080809 386.3093226 2.42654622 C384.10346251 2.435243 381.89760242 2.44393694 379.69174229 2.45262191 C374.47135569 2.47318475 369.25096987 2.49393647 364.03058434 2.51476574 C195.71197843 3.18576902 195.71197843 3.18576902 87.07763368 3.24587846 C80.00940246 3.247157 72.94117546 3.25088868 65.87294579 3.25561619 C56.54475129 3.26164294 47.21657139 3.26179769 37.88837624 3.25736713 C34.53940104 3.25591115 31.1904375 3.25656218 27.84146309 3.25920582 C24.0339823 3.26207011 20.22653451 3.26016817 16.41905725 3.25441742 C14.41630778 3.25252301 12.41355551 3.25544641 10.41080761 3.25858402 C9.21064857 3.25576168 8.01048952 3.25293934 6.77396202 3.25003147 C5.75179935 3.24965445 4.72963667 3.24927742 3.67649937 3.24888897 C-0.8152561 3.0827778 -5.25963538 2.61164461 -9.7263279 2.12304783 C-9.7254061 3.29432854 -9.72448431 4.46560925 -9.72353458 5.67238331 C-9.70164354 33.78775617 -9.6852731 61.90312882 -9.67526257 90.01850839 C-9.67401259 93.51624551 -9.6727182 97.01398261 -9.67139626 100.5117197 C-9.67113395 101.20774739 -9.67087163 101.90377508 -9.67060138 102.62089452 C-9.66630807 113.73512161 -9.65845752 124.84934326 -9.6491751 135.96356717 C-9.63965849 147.45834282 -9.63430965 158.95311541 -9.6322394 170.44789481 C-9.63096206 176.86614017 -9.62807441 183.28437341 -9.62059784 189.70261478 C-9.57935644 226.52113946 -9.99898733 263.31282848 -10.7263279 300.12304783 C-11.3863279 299.79304783 -12.0463279 299.46304783 -12.7263279 299.12304783 C-12.74966923 272.20268436 -12.76731316 245.28232241 -12.77814007 218.36195087 C-12.78330039 205.86287949 -12.7903381 193.3638144 -12.80176735 180.86474705 C-12.81172221 169.97290583 -12.81818324 159.08106917 -12.82041639 148.18922353 C-12.82172213 142.41998466 -12.82479938 136.6507588 -12.83205795 130.88152409 C-12.83883079 125.45453698 -12.84094226 120.02756828 -12.83943558 114.60057735 C-12.83971133 112.60591056 -12.84170898 110.61124316 -12.84553337 108.61658001 C-12.8504903 105.89855932 -12.84931873 103.18060863 -12.84658241 100.4625864 C-12.84949525 99.66881147 -12.8524081 98.87503654 -12.8554092 98.05720782 C-12.84584047 94.55359443 -12.57187594 91.5013139 -11.7263279 88.12304783 C-11.64187868 85.4080397 -11.61037335 82.71997055 -11.62867165 80.00561619 C-11.63013191 79.19055103 -11.63159218 78.37548588 -11.63309669 77.53572178 C-11.6368975 75.7689303 -11.6430086 74.00214262 -11.6511631 72.23536587 C-11.6639288 69.44080309 -11.6704427 66.64628777 -11.67530251 63.85170078 C-11.68672923 57.92129517 -11.70597614 51.99092866 -11.7263279 46.06054783 C-11.74990651 39.18543941 -11.77030267 32.31035334 -11.78226662 25.43521404 C-11.78875986 22.67926777 -11.80126696 19.92338979 -11.81397438 17.16746616 C-11.81760615 15.48200637 -11.82095798 13.79654593 -11.82398415 12.11108494 C-11.82915047 11.34269291 -11.83431679 10.57430088 -11.83963966 9.78262424 C-11.83995576 6.62088103 -11.73407584 4.14629165 -10.7263279 1.12304783 C-7.39636959 -0.54193133 -3.66101491 -0.01110691 0 0 Z " fill="#1F1F1F" transform="translate(25.726327896118164,752.8769521713257)"/>
<path d="M0 0 C0.66 0 1.32 0 2 0 C1.60955226 6.32193042 -0.62425537 10.20702751 -4.0625 15.4375 C-37.41991525 68.11450845 -52.32848045 136.45692418 -42 198 C-41.86190918 198.86866699 -41.72381836 199.73733398 -41.58154297 200.63232422 C-39.7171215 212.35465176 -37.54124435 223.66273264 -34 235 C-33.65453125 236.27101563 -33.3090625 237.54203125 -32.953125 238.8515625 C-28.88731709 253.79456466 -23.08441393 268.23278291 -16 282 C-15.63648438 281.21238281 -15.27296875 280.42476562 -14.8984375 279.61328125 C-14.39570312 278.52402344 -13.89296875 277.43476562 -13.375 276.3125 C-12.83746094 275.13171875 -12.29992188 273.9509375 -11.74609375 272.734375 C-10.6099527 270.26467145 -9.4139864 267.87027527 -8.16015625 265.453125 C-7.30744141 263.77476562 -7.30744141 263.77476562 -6.4375 262.0625 C-5.89996094 261.04285156 -5.36242188 260.02320313 -4.80859375 258.97265625 C-3.64946318 255.90795875 -3.64946318 255.90795875 -5.34765625 252.74609375 C-5.89292969 251.83988281 -6.43820312 250.93367187 -7 250 C-7 249.34 -7 248.68 -7 248 C-7.66 248 -8.32 248 -9 248 C-9.33 246.02 -9.66 244.04 -10 242 C-9.01 242 -8.02 242 -7 242 C-5.61328125 243.6796875 -5.61328125 243.6796875 -4.3125 245.875 C-3.87550781 246.59429688 -3.43851563 247.31359375 -2.98828125 248.0546875 C-2 250 -2 250 -2 252 C-1.34 252 -0.68 252 0 252 C-1.40859611 256.67625307 -3.40540809 260.83135098 -5.6875 265.125 C-10.48456859 274.38218967 -13.77537698 284.10627028 -17 294 C-17.33 294 -17.66 294 -18 294 C-18.23976563 292.88367188 -18.47953125 291.76734375 -18.7265625 290.6171875 C-20.00738535 285.50064913 -22.14327277 280.88747673 -24.375 276.125 C-29.1930311 265.73411292 -33.3451673 255.46109836 -36.5 244.4375 C-36.80188232 243.39190918 -37.10376465 242.34631836 -37.41479492 241.26904297 C-39.89693473 232.57055892 -42.07633483 223.83714201 -44 215 C-44.20238281 214.13246094 -44.40476562 213.26492188 -44.61328125 212.37109375 C-46.4620267 204.03057036 -47.17810361 195.4903985 -48 187 C-48.11472656 185.86433594 -48.22945312 184.72867188 -48.34765625 183.55859375 C-49.09419559 174.65269488 -49.1040782 165.74474858 -49.125 156.8125 C-49.12967285 155.54116211 -49.1343457 154.26982422 -49.13916016 152.95996094 C-49.12612369 145.25240026 -48.75336088 137.66882741 -48 130 C-47.85300935 128.25009683 -47.70699973 126.50011062 -47.5625 124.75 C-47.25235711 121.63356416 -46.74078111 118.71394645 -45.9375 115.6875 C-45.13989274 112.55024478 -44.90338123 110.18841946 -45 107 C-44.505 106.505 -44.505 106.505 -44 106 C-43.52989543 103.39795624 -43.09964131 100.79874939 -42.6875 98.1875 C-41.62140054 91.78487627 -40.16466791 85.79817513 -37.9609375 79.67578125 C-37.07798841 77.21716284 -36.33355265 74.76327792 -35.625 72.25 C-31.37905357 57.88802819 -25.37736692 44.34422531 -18.26049805 31.20141602 C-15.93182576 26.8778794 -13.86618674 22.54324057 -12 18 C-11.34 18 -10.68 18 -10 18 C-9.71125 17.0925 -9.4225 16.185 -9.125 15.25 C-8.23468224 12.67797092 -7.28505587 10.38653234 -6 8 C-5.34 8 -4.68 8 -4 8 C-3.896875 7.4225 -3.79375 6.845 -3.6875 6.25 C-2.89103535 3.64338842 -1.80934723 2.0264689 0 0 Z " fill="#000000" transform="translate(1124,574)"/>
<path d="M0 0 C40.34988156 -0.02286806 80.69976228 -0.04049909 121.04964902 -0.05106533 C125.8088155 -0.0523161 130.56798197 -0.05361041 135.32714844 -0.05493164 C136.2746487 -0.05519395 137.22214896 -0.05545626 138.19836135 -0.05572652 C153.5582458 -0.06008277 168.91812651 -0.06797008 184.27800874 -0.0771528 C200.028131 -0.08649057 215.77825131 -0.09205587 231.52837622 -0.09408849 C241.25406268 -0.09546346 250.9797386 -0.09981265 260.70542182 -0.10791647 C267.36655608 -0.11318545 274.02768487 -0.11480394 280.68882106 -0.11350138 C284.53708243 -0.11285824 288.38532533 -0.11387282 292.23358345 -0.11920547 C296.39738291 -0.12493354 300.5611426 -0.12299921 304.72494507 -0.12025452 C305.95255 -0.12316736 307.18015492 -0.1260802 308.44496 -0.12908131 C309.55317849 -0.12709026 310.66139699 -0.12509921 311.80319786 -0.12304783 C312.76540918 -0.12342755 313.72762049 -0.12380727 314.71898973 -0.1241985 C317 -0 317 -0 319 1 C319 49.18 319 97.36 319 147 C318.34 147 317.68 147 317 147 C317 99.15 317 51.3 317 2 C281.36 2.2475 281.36 2.2475 245 2.5 C230.12891957 2.59703978 215.2578752 2.69373827 200.38671875 2.77734375 C199.47003725 2.78252478 198.55335575 2.78770582 197.60889602 2.79304385 C154.3434535 3.03611519 111.07853684 3.08504726 67.8125 3.0625 C66.9736451 3.06207577 66.13479019 3.06165154 65.27051544 3.06121445 C44.18033141 3.05036315 23.09016491 3.03070653 2 3 C2.00261841 3.9330043 2.00523682 4.86600861 2.00793457 5.82728577 C2.07581618 32.68770232 1.86110991 59.54021854 1.53643799 86.39849854 C1.47443488 91.56968265 1.41508714 96.74089731 1.35546875 101.91210938 C1.23947386 111.94143652 1.12070775 121.97072854 1 132 C0.67 132 0.34 132 0 132 C-0.84570476 115.88166545 -1.1495548 99.81061342 -1.1328125 83.671875 C-1.13348832 81.33538808 -1.13446066 78.99890123 -1.13571167 76.66241455 C-1.13716971 71.82213659 -1.13509204 66.98187732 -1.13037109 62.14160156 C-1.12461048 55.9333082 -1.12800418 49.72505748 -1.13394356 43.51676559 C-1.13754637 38.71795323 -1.13641298 33.9191511 -1.13381577 29.12033844 C-1.13314901 26.82854456 -1.13396614 24.53674976 -1.13629532 22.24495697 C-1.13882407 19.0652974 -1.13498098 15.88570893 -1.12939453 12.70605469 C-1.13141876 11.76179626 -1.13344299 10.81753784 -1.13552856 9.84466553 C-1.13270874 8.98187988 -1.12988892 8.11909424 -1.12698364 7.23016357 C-1.1264181 6.10660021 -1.1264181 6.10660021 -1.12584114 4.96033859 C-1 3 -1 3 0 0 Z " fill="#1B1B1B" transform="translate(13,17)"/>
<path d="M0 0 C6.625 -0.25 6.625 -0.25 10 2 C10.37374616 4.2798596 10.37374616 4.2798596 10.3719368 7.19400883 C10.37852664 8.30161062 10.38511649 9.40921242 10.39190602 10.55037791 C10.38384962 11.77730071 10.37579321 13.00422352 10.36749268 14.26832581 C10.37076152 15.56381519 10.37403036 16.85930457 10.37739825 18.19405121 C10.38608028 21.80199343 10.37594966 25.40967993 10.36285591 29.01759994 C10.3519921 32.90378814 10.35836537 36.78995179 10.36264038 40.67614746 C10.36828451 48.29367251 10.35793882 55.91109723 10.34235242 63.52860517 C10.32485067 72.39056698 10.32339397 81.25250909 10.32273683 90.11448549 C10.32104732 105.92066507 10.30521435 121.72679881 10.28125 137.53295898 C10.25798668 152.88778056 10.24382493 168.24257305 10.24023438 183.59741211 C10.24001161 184.54319886 10.23978884 185.48898561 10.23955932 186.46343256 C10.23911674 188.36859872 10.23867471 190.27376489 10.23823325 192.17893105 C10.23801369 193.11862558 10.23779412 194.0583201 10.2375679 195.02649021 C10.23735192 195.96373752 10.23713593 196.90098483 10.2369134 197.86663357 C10.23321638 212.47586251 10.22185672 227.08508673 10.2094375 241.6943105 C10.20499574 246.9984357 10.20156016 252.30256045 10.19881538 257.60668678 C10.19439074 266.01825026 10.18664513 274.42979635 10.17204097 282.84134883 C10.1654155 286.68747084 10.16036509 290.5335774 10.15958023 294.37970543 C10.15865376 298.53937775 10.14999331 302.6989964 10.14044189 306.85865784 C10.14130838 308.08781137 10.14217486 309.31696489 10.1430676 310.5833655 C10.13730588 312.24085657 10.13730588 312.24085657 10.13142776 313.93183231 C10.13018127 314.89333921 10.12893477 315.8548461 10.1276505 316.84548956 C10 319 10 319 9 320 C7.49581261 320.09311889 5.98728644 320.11746028 4.48022461 320.11352539 C3.03884377 320.11341209 3.03884377 320.11341209 1.56834412 320.11329651 C0.523564 320.10813522 -0.52121613 320.10297394 -1.59765625 320.09765625 C-3.19364906 320.09553383 -3.19364906 320.09553383 -4.82188416 320.09336853 C-8.23545083 320.08775064 -11.648953 320.07519511 -15.0625 320.0625 C-17.37044176 320.05748731 -19.67838455 320.052924 -21.98632812 320.04882812 C-27.65757426 320.0377754 -33.32878253 320.02101987 -39 320 C-39 319.67 -39 319.34 -39 319 C-23.49 319 -7.98 319 8 319 C7.67 214.72 7.34 110.44 7 3 C4.69 2.67 2.38 2.34 0 2 C0 1.34 0 0.68 0 0 Z " fill="#141414" transform="translate(1060,752)"/>
<path d="M0 0 C0.99 0.33 1.98 0.66 3 1 C4.12037147 6.38171516 4.12795963 11.5735586 4.09765625 17.04101562 C4.09546585 18.53479988 4.09546585 18.53479988 4.0932312 20.0587616 C4.08943454 22.21456907 4.08332785 24.37037346 4.07516479 26.52616882 C4.06237652 29.93920516 4.05587924 33.35220253 4.05102539 36.76525879 C4.03766929 45.24047862 4.01345004 53.71566126 3.98962402 62.19085693 C3.96989243 69.35710949 3.95425274 76.52334831 3.94406128 83.68962097 C3.93758467 87.04981966 3.92507705 90.4099616 3.91235352 93.7701416 C3.9087204 95.83308869 3.90536874 97.8960363 3.90234375 99.95898438 C3.89459427 101.35717659 3.89459427 101.35717659 3.88668823 102.78361511 C3.88639391 106.40019256 3.95573041 109.74190014 4.56860352 113.31506348 C5.04206677 116.26181625 4.61929878 118.09842399 4 121 C3.92173623 123.85930589 3.89400385 126.69224167 3.91821289 129.55053711 C3.92127945 130.3999437 3.92434601 131.24935028 3.92750549 132.12449646 C3.93464374 133.9638406 3.94402492 135.80317711 3.95540047 137.64249992 C3.97282515 140.55558147 3.98310088 143.46860791 3.99131775 146.38172913 C4.01574164 154.66266085 4.0513374 162.94351818 4.09594727 171.22436523 C4.12275848 176.2940427 4.13978253 181.3636774 4.15081596 186.43341255 C4.15701602 188.36269271 4.16700914 190.29196461 4.18089485 192.22120476 C4.200154 194.92088093 4.20701309 197.62033264 4.21118164 200.32006836 C4.21994324 201.11350647 4.22870483 201.90694458 4.23773193 202.72442627 C4.22984099 207.21071774 3.69799526 210.77135615 2 215 C-0.20857055 214.85780436 -2.41684987 214.71108153 -4.625 214.5625 C-6.46964844 214.44068359 -6.46964844 214.44068359 -8.3515625 214.31640625 C-12 214 -12 214 -14.96875 213.46484375 C-18.62336825 212.90440616 -22.1914782 212.93331217 -25.875 213 C-30.22495218 213.04815079 -34.4980466 213.07221475 -38.8125 212.4375 C-42.01343771 211.75876119 -42.01343771 211.75876119 -45 213 C-45.99 212.34 -46.98 211.68 -48 211 C-51.02332221 210.85166159 -53.95254863 210.81625157 -56.97265625 210.875 C-57.85150986 210.88257324 -58.73036346 210.89014648 -59.635849 210.89794922 C-62.44493084 210.92239866 -65.25360399 210.95966369 -68.0625 211 C-71.7617074 211.05302166 -75.46071338 211.09308648 -79.16015625 211.125 C-80.44298241 211.14989502 -80.44298241 211.14989502 -81.75172424 211.17529297 C-83.83522963 211.19269453 -85.91909609 211.1055292 -88 211 C-88.66 210.34 -89.32 209.68 -90 209 C-59.64 209 -29.28 209 2 209 C1.85131554 172.45993948 1.85131554 172.45993948 1.69335938 135.91992188 C1.62691509 121.02629643 1.5615113 106.13267142 1.50268555 91.23901367 C1.45984486 80.39367596 1.41356715 69.54835936 1.36312145 58.70305425 C1.3365196 52.95789299 1.31166647 47.21273593 1.29092598 41.46755028 C1.27136585 36.0643483 1.24722389 30.66118652 1.21950912 25.2580204 C1.21013539 23.27100478 1.20246127 21.28398033 1.19658089 19.29695129 C1.18832521 16.59169659 1.17404999 13.88653958 1.15821838 11.18132019 C1.15724028 10.38852337 1.15626217 9.59572654 1.15525442 8.77890557 C1.13112338 5.58952588 1.01605085 3.04815255 0 0 Z " fill="#171717" transform="translate(1066,526)"/>
<path d="M0 0 C1.77061223 0.95851276 3.55527443 1.89093123 5.34033203 2.82226562 C18.14061887 9.75393404 29.53876684 18.76722345 40.27392578 28.55664062 C40.81154541 29.04487305 41.34916504 29.53310547 41.90307617 30.03613281 C44.56156522 32.5297442 46.25288219 34.74603494 47.83642578 37.99414062 C48.82642578 38.32414063 49.81642578 38.65414062 50.83642578 38.99414062 C54.05607611 42.47908049 56.91855663 46.25498313 59.83642578 49.99414062 C60.40876953 50.70183594 60.98111328 51.40953125 61.57080078 52.13867188 C62.96142578 53.93164063 62.96142578 53.93164063 64.83642578 56.99414062 C64.45361328 59.18554687 64.45361328 59.18554687 63.83642578 60.99414062 C63.45873047 60.42308594 63.08103516 59.85203125 62.69189453 59.26367188 C51.30951042 42.49664704 37.42055136 27.68015351 20.83642578 15.99414062 C20.21171387 15.55215332 19.58700195 15.11016602 18.94335938 14.65478516 C-10.14734743 -5.65463766 -44.6050618 -17.47400128 -80.16357422 -18.00585938 C-81.22576172 -18.04453125 -82.28794922 -18.08320312 -83.38232422 -18.12304688 C-129.10479503 -19.16219394 -170.66661348 -0.8311728 -205.16357422 27.99414062 C-205.49357422 27.33414063 -205.82357422 26.67414062 -206.16357422 25.99414062 C-203.03735796 22.59996297 -200.59816395 20.38786883 -196.16357422 18.99414062 C-196.16357422 18.33414063 -196.16357422 17.67414062 -196.16357422 16.99414062 C-194.51357422 16.33414063 -192.86357422 15.67414062 -191.16357422 14.99414062 C-191.16357422 14.33414063 -191.16357422 13.67414062 -191.16357422 12.99414062 C-188.98802161 11.40143664 -186.83056712 9.96678375 -184.53857422 8.55664062 C-183.82854248 8.11924561 -183.11851074 7.68185059 -182.38696289 7.23120117 C-126.87050205 -26.28536976 -57.83747227 -31.32176857 0 0 Z " fill="#262626" transform="translate(1364.16357421875,757.005859375)"/>
<path d="M0 0 C0.33 0 0.66 0 1 0 C1.02305899 29.17109049 1.04063414 58.34218053 1.05106533 87.51327829 C1.0523153 90.99599414 1.05360969 94.47870996 1.05493164 97.96142578 C1.05532511 99.00098139 1.05532511 99.00098139 1.05572652 100.06153813 C1.06001954 111.12726628 1.06786993 122.19298897 1.0771528 133.25871393 C1.08667022 144.70376904 1.09201841 156.14882106 1.09408849 167.59387994 C1.09536571 173.98417964 1.09825242 180.37446718 1.10573006 186.76476288 C1.14708771 223.52151887 0.72555488 260.25152488 0 297 C-0.66 296.67 -1.32 296.34 -2 296 C-2.02334134 269.07963654 -2.04098526 242.15927458 -2.05181217 215.23890305 C-2.0569725 202.73983167 -2.0640102 190.24076657 -2.07543945 177.74169922 C-2.08539431 166.849858 -2.09185535 155.95802134 -2.09408849 145.0661757 C-2.09539423 139.29693683 -2.09847149 133.52771097 -2.10573006 127.75847626 C-2.11250289 122.33148915 -2.11461436 116.90452046 -2.11310768 111.47752953 C-2.11338344 109.48286273 -2.11538108 107.48819533 -2.11920547 105.49353218 C-2.1241624 102.77551149 -2.12299083 100.0575608 -2.12025452 97.33953857 C-2.12316736 96.54576364 -2.1260802 95.75198871 -2.12908131 94.93415999 C-2.1195124 91.43048316 -1.84521309 88.3783514 -1 85 C-0.91553438 82.27445096 -0.88404936 79.57573067 -0.90234375 76.85083008 C-0.90380402 76.03255234 -0.90526428 75.2142746 -0.9067688 74.37120056 C-0.91056931 72.59785673 -0.91668011 70.82451667 -0.92483521 69.05118752 C-0.93759451 66.24877284 -0.94411287 63.44640546 -0.94897461 60.64396667 C-0.96040091 54.7001232 -0.9796588 48.75631878 -1 42.8125 C-1.02355665 35.91580682 -1.04395003 29.01913555 -1.05593872 22.12241173 C-1.0624479 19.35418641 -1.0749534 16.58602822 -1.08764648 13.81782532 C-1.0912767 12.13221293 -1.09462872 10.44659991 -1.09765625 8.76098633 C-1.10282257 7.98540375 -1.10798889 7.20982117 -1.11331177 6.41073608 C-1.11349283 4.60676195 -1.06235698 2.8028961 -1 1 C-0.67 0.67 -0.34 0.34 0 0 Z " fill="#8D8D8D" transform="translate(15,756)"/>
<path d="M0 0 C0.99 0.33 1.98 0.66 3 1 C6.60560223 16.64525656 4.61234787 35.22607782 2 51 C1.82855469 52.16015625 1.65710937 53.3203125 1.48046875 54.515625 C-1.78653163 73.65392401 -9.23058984 91.78597265 -18 109 C-19.32 108.34 -20.64 107.68 -22 107 C-21.28203355 102.87949688 -19.22895733 99.41069845 -17.3125 95.75 C-4.52571424 70.60725011 6.83156025 31.85612171 -0.57519531 3.82299805 C-1 2 -1 2 0 0 Z " fill="#000000" transform="translate(1451,712)"/>
<path d="M0 0 C0.86908912 -0.00155999 1.73817824 -0.00311998 2.63360339 -0.00472724 C5.56359861 -0.00873506 8.49354255 -0.00554828 11.42353821 -0.00241089 C13.51769542 -0.00376515 15.61185239 -0.00554523 17.70600891 -0.00772095 C23.41126705 -0.01229592 29.11650719 -0.01050449 34.82176566 -0.00734186 C40.79520959 -0.00481425 46.76865196 -0.00715733 52.74209595 -0.00872803 C62.7890704 -0.01055038 72.83603752 -0.00814361 82.88301086 -0.00338745 C94.47299183 0.00203607 106.06295516 0.00030673 117.65293568 -0.00521386 C127.61066675 -0.00976614 137.56839253 -0.01038463 147.5261243 -0.00777519 C153.46950336 -0.00622155 159.41287415 -0.00599313 165.35625267 -0.00931168 C170.95812927 -0.01222045 176.55998341 -0.01015991 182.1618576 -0.00441742 C184.20834376 -0.00310502 186.25483184 -0.00345781 188.30131721 -0.00568008 C199.48077365 -0.01669129 210.55407824 0.18296727 221.69819641 1.12698364 C221.69819641 1.45698364 221.69819641 1.78698364 221.69819641 2.12698364 C194.6838994 3.01160335 167.69847786 3.26640966 140.67098284 3.22837758 C135.3353594 3.22198813 129.99973495 3.22152825 124.66410828 3.22035217 C114.62848325 3.21728364 104.59286954 3.2091328 94.55724943 3.19900268 C83.10314149 3.18769969 71.64903293 3.18229591 60.19492078 3.17730725 C36.69600646 3.16694466 13.19710208 3.14943515 -10.30180359 3.12698364 C-10.30180359 2.46698364 -10.30180359 1.80698364 -10.30180359 1.12698364 C-7.07404635 -0.48689498 -3.54576604 -0.00964004 0 0 Z " fill="#252525" transform="translate(25.301803588867188,752.8730163574219)"/>
<path d="M0 0 C18.89786754 -0.02338023 37.79573213 -0.04100435 56.69361115 -0.05181217 C65.46859725 -0.05696424 74.24357436 -0.06398618 83.01855469 -0.07543945 C90.66853005 -0.08541957 98.31849889 -0.09186135 105.96848059 -0.09408849 C110.01751354 -0.09538995 114.06652785 -0.09843999 118.11555481 -0.10573006 C121.93055272 -0.11254279 125.74552439 -0.1146063 129.5605278 -0.11310768 C130.95686867 -0.11338165 132.35321046 -0.1153555 133.74954605 -0.11920547 C140.58878593 -0.13712967 147.23764388 -0.07328913 154 1 C154 1.33 154 1.66 154 2 C122.84906631 3.11099981 91.71212763 3.12305031 60.54467773 3.06866455 C53.91911113 3.0582444 47.29354126 3.05382784 40.66796875 3.04882812 C27.77863574 3.03825603 14.88931919 3.02150469 2 3 C2.00261841 3.9330043 2.00523682 4.86600861 2.00793457 5.82728577 C2.07581618 32.68770232 1.86110991 59.54021854 1.53643799 86.39849854 C1.47443488 91.56968265 1.41508714 96.74089731 1.35546875 101.91210938 C1.23947386 111.94143652 1.12070775 121.97072854 1 132 C0.67 132 0.34 132 0 132 C-0.84570476 115.88166545 -1.1495548 99.81061342 -1.1328125 83.671875 C-1.13348832 81.33538808 -1.13446066 78.99890123 -1.13571167 76.66241455 C-1.13716971 71.82213659 -1.13509204 66.98187732 -1.13037109 62.14160156 C-1.12461048 55.9333082 -1.12800418 49.72505748 -1.13394356 43.51676559 C-1.13754637 38.71795323 -1.13641298 33.9191511 -1.13381577 29.12033844 C-1.13314901 26.82854456 -1.13396614 24.53674976 -1.13629532 22.24495697 C-1.13882407 19.0652974 -1.13498098 15.88570893 -1.12939453 12.70605469 C-1.13141876 11.76179626 -1.13344299 10.81753784 -1.13552856 9.84466553 C-1.13270874 8.98187988 -1.12988892 8.11909424 -1.12698364 7.23016357 C-1.1264181 6.10660021 -1.1264181 6.10660021 -1.12584114 4.96033859 C-1 3 -1 3 0 0 Z " fill="#535353" transform="translate(13,17)"/>
<path d="M0 0 C0 0.33 0 0.66 0 1 C-6.71900438 1.56411431 -13.37936431 2.06907937 -20.125 1.9375 C-64.94668645 1.7754939 -105.13562342 19.70326754 -139 48 C-139.33 47.34 -139.66 46.68 -140 46 C-136.87378374 42.60582235 -134.43458973 40.3937282 -130 39 C-130 38.34 -130 37.68 -130 37 C-128.35 36.34 -126.7 35.68 -125 35 C-125 34.34 -125 33.68 -125 33 C-122.82444739 31.40729601 -120.6669929 29.97264312 -118.375 28.5625 C-117.66496826 28.12510498 -116.95493652 27.68770996 -116.22338867 27.23706055 C-81.78913716 6.4483068 -40.4708296 -5.78816213 0 0 Z " fill="#222222" transform="translate(1298,737)"/>
<path d="M0 0 C30.69 0 61.38 0 93 0 C92.67 1.98 92.34 3.96 92 6 C89.79142945 5.85780436 87.58315013 5.71108153 85.375 5.5625 C84.14523437 5.48128906 82.91546875 5.40007813 81.6484375 5.31640625 C78 5 78 5 75.03125 4.46484375 C71.37663175 3.90440616 67.8085218 3.93331217 64.125 4 C59.77504782 4.04815079 55.5019534 4.07221475 51.1875 3.4375 C47.98656229 2.75876119 47.98656229 2.75876119 45 4 C44.01 3.34 43.02 2.68 42 2 C38.97667779 1.85166159 36.04745137 1.81625157 33.02734375 1.875 C32.14849014 1.88257324 31.26963654 1.89014648 30.364151 1.89794922 C27.55506916 1.92239866 24.74639601 1.95966369 21.9375 2 C18.2382926 2.05302166 14.53928662 2.09308648 10.83984375 2.125 C9.98462631 2.14159668 9.12940887 2.15819336 8.24827576 2.17529297 C6.16477037 2.19269453 4.08090391 2.1055292 2 2 C1.34 1.34 0.68 0.68 0 0 Z " fill="#000000" transform="translate(976,735)"/>
<path d="M0 0 C3.69665253 1.44694578 4.94218627 3.08067846 6.76953125 6.55859375 C7.26251709 7.49203613 7.75550293 8.42547852 8.26342773 9.38720703 C8.77462158 10.39380371 9.28581543 11.40040039 9.8125 12.4375 C10.34367432 13.47503418 10.87484863 14.51256836 11.42211914 15.58154297 C21.92772718 36.49665652 29.27187248 59.37504356 29.0625 82.9375 C29.05798828 83.90751953 29.05347656 84.87753906 29.04882812 85.87695312 C29.0371315 88.2513676 29.02074086 90.62565021 29 93 C28.67 93 28.34 93 28 93 C27.96036133 92.40276123 27.92072266 91.80552246 27.87988281 91.19018555 C25.58353276 58.01680827 16.55059121 28.88240427 0 0 Z " fill="#222222" transform="translate(1431,821)"/>
<path d="M0 0 C0.33 0 0.66 0 1 0 C1 2.31 1 4.62 1 7 C0.34 7 -0.32 7 -1 7 C-3.10819775 20.79252811 -3.62879528 34.57183721 -4.125 48.5 C-4.2116069 50.78778446 -4.29884198 53.07554522 -4.38671875 55.36328125 C-4.59837888 60.90860225 -4.80232071 66.45416391 -5 72 C-5.33 72 -5.66 72 -6 72 C-9.16594227 48.36850234 -7.56278431 22.68835294 0 0 Z " fill="#484848" transform="translate(1105,868)"/>
<path d="M0 0 C0.66 0 1.32 0 2 0 C2 0.66 2 1.32 2 2 C0.42578125 3.55078125 0.42578125 3.55078125 -1.6875 5.3125 C-4.05111348 7.32012266 -6.30487913 9.30487913 -8.5 11.5 C-20.39041859 23.39041859 -34.24497563 32.13065367 -49 40 C-49.75023437 40.433125 -50.50046875 40.86625 -51.2734375 41.3125 C-53 42 -53 42 -56 41 C-55.04480469 40.50371094 -54.08960938 40.00742188 -53.10546875 39.49609375 C-39.99781421 32.65333538 -39.99781421 32.65333538 -27.82421875 24.30078125 C-26 23 -26 23 -24 23 C-24 22.34 -24 21.68 -24 21 C-22.59660637 20.05589883 -21.18866899 19.11791873 -19.75976562 18.21289062 C-15.98263525 15.60956326 -12.80159747 12.24258817 -9.50390625 9.0703125 C-5.20300954 5 -5.20300954 5 -3 5 C-2.690625 4.360625 -2.38125 3.72125 -2.0625 3.0625 C-1 1 -1 1 0 0 Z " fill="#0C0C0C" transform="translate(1411,1041)"/>
<path d="M0 0 C3.82669043 3.42388092 5.72278474 6.00724943 7 11 C7.66 11 8.32 11 9 11 C7.49850611 15.99715935 5.37970693 20.44535124 3 25.0625 C0.81848779 29.31882003 -1.32062811 33.51292822 -3 38 C-3.77269657 35.73306769 -4.14112699 34.4374481 -3.39501953 32.12475586 C-3.06099121 31.49448486 -2.72696289 30.86421387 -2.3828125 30.21484375 C-1.84333984 29.17166992 -1.84333984 29.17166992 -1.29296875 28.10742188 C-0.90753906 27.39134766 -0.52210937 26.67527344 -0.125 25.9375 C0.62393563 24.50992133 1.37139141 23.08156508 2.1171875 21.65234375 C2.45347168 21.02320068 2.78975586 20.39405762 3.13623047 19.74584961 C4.1310581 17.83558962 4.1310581 17.83558962 5 15 C4.04987876 12.97582866 3.05008653 10.97416268 2 9 C2 8.34 2 7.68 2 7 C1.34 7 0.68 7 0 7 C-0.38133299 5.0085944 -0.71325582 3.00720923 -1 1 C-0.67 0.67 -0.34 0.34 0 0 Z " fill="#070707" transform="translate(1115,815)"/>
<path d="M0 0 C-1.41844748 4.25534245 -4.55434773 5.35323591 -8.25 7.5 C-16.20824604 12.27171257 -23.11815948 17.80162994 -30 24 C-30.33 23.34 -30.66 22.68 -31 22 C-27.87378374 18.60582235 -25.43458973 16.3937282 -21 15 C-21 14.34 -21 13.68 -21 13 C-19.35 12.34 -17.7 11.68 -16 11 C-16 10.34 -16 9.68 -16 9 C-13.73701547 7.3633245 -11.48732888 5.85434489 -9.125 4.375 C-8.47402344 3.95476563 -7.82304688 3.53453125 -7.15234375 3.1015625 C-2.26838981 0 -2.26838981 0 0 0 Z " fill="#181818" transform="translate(1189,761)"/>
<path d="M0 0 C0.84626953 -0.00386719 1.69253906 -0.00773438 2.56445312 -0.01171875 C7.77764744 -0.0036799 12.77833333 0.37349133 17.9375 1.125 C17.9375 1.455 17.9375 1.785 17.9375 2.125 C5.45752771 3.15884386 -6.60318589 3.4984677 -19.0625 2.125 C-19.0625 1.795 -19.0625 1.465 -19.0625 1.125 C-12.66845309 0.31203339 -6.44218339 -0.02957391 0 0 Z " fill="#171717" transform="translate(1280.0625,735.875)"/>
<path d="M0 0 C1.32451172 0.10828125 1.32451172 0.10828125 2.67578125 0.21875 C10.13716579 0.79578511 17.51697331 1.13744335 25 1 C24.67 1.66 24.34 2.32 24 3 C15.42 3 6.84 3 -2 3 C-1.34 2.67 -0.68 2.34 0 2 C0 1.34 0 0.68 0 0 Z " fill="#565656" transform="translate(565,1070)"/>
<path d="M0 0 C0 0.66 0 1.32 0 2 C-8.25 1.34 -16.5 0.68 -25 0 C-25 -0.33 -25 -0.66 -25 -1 C-16.3534177 -2.30581039 -8.58154998 -1.51586503 0 0 Z " fill="#2D2D2D" transform="translate(1313,739)"/>
<path d="M0 0 C5.94 0 11.88 0 18 0 C15 3 15 3 11.42578125 3.07421875 C10.05326192 2.96149977 8.68203828 2.83199844 7.3125 2.6875 C6.61060547 2.62626953 5.90871094 2.56503906 5.18554688 2.50195312 C3.4557033 2.34897376 1.72761503 2.17637398 0 2 C0 1.34 0 0.68 0 0 Z " fill="#202020" transform="translate(77,17)"/>
<path d="M0 0 C6.27 0 12.54 0 19 0 C19 0.66 19 1.32 19 2 C14.643098 3.19127531 11.12042737 2.76679687 6.6875 2.0625 C5.43324219 1.86785156 4.17898437 1.67320313 2.88671875 1.47265625 C1.93410156 1.31667969 0.98148437 1.16070313 0 1 C0 0.67 0 0.34 0 0 Z " fill="#1C1C1C" transform="translate(115,17)"/>
<path d="M0 0 C0.96421875 0.00257813 1.9284375 0.00515625 2.921875 0.0078125 C4.35273437 0.00394531 4.35273437 0.00394531 5.8125 0 C8.53651428 0.12652525 11.01862509 0.52275869 13.671875 1.1328125 C13.671875 1.7928125 13.671875 2.4528125 13.671875 3.1328125 C11.40130123 3.18680237 9.13036212 3.22559992 6.859375 3.2578125 C4.96251953 3.29261719 4.96251953 3.29261719 3.02734375 3.328125 C-0.328125 3.1328125 -0.328125 3.1328125 -3.328125 1.1328125 C-2.328125 0.1328125 -2.328125 0.1328125 0 0 Z " fill="#2C2C2C" transform="translate(816.328125,525.8671875)"/>
<path d="M0 0 C4.29 0.33 8.58 0.66 13 1 C12.67 1.66 12.34 2.32 12 3 C7.38 3 2.76 3 -2 3 C-1.34 2.67 -0.68 2.34 0 2 C0 1.34 0 0.68 0 0 Z " fill="#595959" transform="translate(603,1070)"/>
<path d="M0 0 C4.08251636 2.04125818 4.52393974 2.30300942 6.25 6.125 C6.58515625 6.84945312 6.9203125 7.57390625 7.265625 8.3203125 C7.62914062 9.15175781 7.62914062 9.15175781 8 10 C7.01 10 6.02 10 5 10 C3.35 6.7 1.7 3.4 0 0 Z " fill="#212121" transform="translate(1431,821)"/>
<path d="M0 0 C1.60495567 0.11442461 3.20898119 0.24194694 4.8125 0.375 C5.70582031 0.44460938 6.59914063 0.51421875 7.51953125 0.5859375 C10 1 10 1 13 3 C11.58344207 3.0272415 10.16672955 3.04650467 8.75 3.0625 C7.56664062 3.07990234 7.56664062 3.07990234 6.359375 3.09765625 C4.09308998 3.00385306 2.1711105 2.63241063 0 2 C0 1.34 0 0.68 0 0 Z " fill="#1B1B1B" transform="translate(1313,740)"/>
<path d="M0 0 C3.3 0 6.6 0 10 0 C10.33 0.99 10.66 1.98 11 3 C7.37 3 3.74 3 0 3 C0 2.01 0 1.02 0 0 Z " fill="#6C6C6C" transform="translate(653,1070)"/>
<path d="M0 0 C0.33 0.66 0.66 1.32 1 2 C0.34 2 -0.32 2 -1 2 C-1.226875 2.721875 -1.45375 3.44375 -1.6875 4.1875 C-3.24831013 7.53209313 -5.3031287 9.51603959 -8 12 C-6.74337944 7.49710965 -5.16038089 4.4566666 -2 1 C-1.34 0.67 -0.68 0.34 0 0 Z " fill="#141414" transform="translate(1137,806)"/>
<path d="M0 0 C1.48693359 0.00386719 1.48693359 0.00386719 3.00390625 0.0078125 C3.99261719 0.00523437 4.98132813 0.00265625 6 0 C8.56640625 0.1328125 8.56640625 0.1328125 10.56640625 1.1328125 C10.23640625 1.7928125 9.90640625 2.4528125 9.56640625 3.1328125 C7.96261284 3.18697438 6.35829219 3.22567888 4.75390625 3.2578125 C3.86058594 3.28101563 2.96726562 3.30421875 2.046875 3.328125 C-0.43359375 3.1328125 -0.43359375 3.1328125 -3.43359375 1.1328125 C-2.43359375 0.1328125 -2.43359375 0.1328125 0 0 Z " fill="#2D2D2D" transform="translate(858.43359375,751.8671875)"/>
<path d="M0 0 C4.29 0 8.58 0 13 0 C12.67 0.99 12.34 1.98 12 3 C8.04 3 4.08 3 0 3 C0 2.01 0 1.02 0 0 Z " fill="#2A2A2A" transform="translate(883,526)"/>
<path d="M0 0 C1.48693359 0.00386719 1.48693359 0.00386719 3.00390625 0.0078125 C3.99261719 0.00523437 4.98132813 0.00265625 6 0 C8.56640625 0.1328125 8.56640625 0.1328125 10.56640625 1.1328125 C10.23640625 1.7928125 9.90640625 2.4528125 9.56640625 3.1328125 C7.96261284 3.18697438 6.35829219 3.22567888 4.75390625 3.2578125 C3.86058594 3.28101563 2.96726562 3.30421875 2.046875 3.328125 C-0.43359375 3.1328125 -0.43359375 3.1328125 -3.43359375 1.1328125 C-2.43359375 0.1328125 -2.43359375 0.1328125 0 0 Z " fill="#2C2C2C" transform="translate(854.43359375,525.8671875)"/>
<path d="M0 0 C-0.33 0.66 -0.66 1.32 -1 2 C-4.63 2 -8.26 2 -12 2 C-12 1.34 -12 0.68 -12 0 C-10.56359829 -0.19573608 -9.12580496 -0.38127816 -7.6875 -0.5625 C-6.88699219 -0.66691406 -6.08648438 -0.77132812 -5.26171875 -0.87890625 C-3 -1 -3 -1 0 0 Z " fill="#2C2C2C" transform="translate(788,753)"/>
<path d="M0 0 C-1.50223584 4.20626034 -4.28550034 5.73900021 -8 8 C-7.65978036 4.82461668 -6.97533396 3.97723135 -4.5625 1.75 C-2 0 -2 0 0 0 Z " fill="#151515" transform="translate(1166,777)"/>
<path d="M0 0 C3.37462715 0.54723683 5.08235 1.0549 8 3 C8 3.66 8 4.32 8 5 C4.62496331 3.8141763 2.35277269 2.72426311 0 0 Z " fill="#535353" transform="translate(1181,1070)"/>
<path d="M0 0 C0.66 0.66 1.32 1.32 2 2 C0.625 3.5 0.625 3.5 -1 5 C-1.66 5 -2.32 5 -3 5 C-3.33 5.99 -3.66 6.98 -4 8 C-4.66 7.67 -5.32 7.34 -6 7 C-4.71937515 5.2925002 -3.38232443 3.62626404 -2 2 C-1.34 2 -0.68 2 0 2 C0 1.34 0 0.68 0 0 Z " fill="#171717" transform="translate(1156,784)"/>
<path d="M0 0 C0.33 0.99 0.66 1.98 1 3 C-1.97 3 -4.94 3 -8 3 C-8 2.34 -8 1.68 -8 1 C-5.23735711 0.40267181 -2.83967231 0 0 0 Z " fill="#616161" transform="translate(625,1070)"/>
<path d="M0 0 C0 0.66 0 1.32 0 2 C-4.43076923 4.09230769 -4.43076923 4.09230769 -7.3125 3.625 C-7.869375 3.41875 -8.42625 3.2125 -9 3 C-3.375 0 -3.375 0 0 0 Z " fill="#171717" transform="translate(1214,749)"/>
</svg>
