<?xml version="1.0" encoding="UTF-8"?>
<svg version="1.1" xmlns="http://www.w3.org/2000/svg" width="3000" height="2000">
<path d="M0 0 C9.27199716 0.4581704 18.61898158 -0.24886038 27.87890625 -0.73242188 C29.41224609 -0.80493164 29.41224609 -0.80493164 30.9765625 -0.87890625 C31.89518066 -0.9260376 32.81379883 -0.97316895 33.76025391 -1.02172852 C36 -1 36 -1 38 0 C40.26722669 0.01645732 42.53508836 -0.03610303 44.80078125 -0.12109375 C45.47417038 -0.14470474 46.14755951 -0.16831573 46.84135437 -0.19264221 C48.99861822 -0.26926331 51.15552529 -0.35316246 53.3125 -0.4375 C55.45879542 -0.51674264 57.60513897 -0.59449783 59.75151062 -0.67164612 C61.70723607 -0.74269536 63.66282689 -0.81742235 65.6184082 -0.89233398 C73.70067196 -1.14966402 73.70067196 -1.14966402 76 0 C77.485 -0.495 77.485 -0.495 79 -1 C79.66 -0.67 80.32 -0.34 81 0 C83.97014065 -0.09152521 86.91166268 -0.24064386 89.875 -0.4375 C110.65472426 -1.67263787 110.65472426 -1.67263787 114 0 C115.485 -0.495 115.485 -0.495 117 -1 C117.66 -0.67 118.32 -0.34 119 0 C121.63989197 -0.09110281 124.2529284 -0.24259694 126.88647461 -0.42919922 C139.85814317 -1.22314138 152.82521425 -1.14462499 165.81640625 -1.1328125 C168.45246896 -1.1334875 171.08853161 -1.13445915 173.72459412 -1.13571167 C179.20499181 -1.13751429 184.68537587 -1.13517317 190.16577148 -1.13037109 C196.49918615 -1.12488568 202.83256883 -1.12672944 209.16598278 -1.1321975 C215.29079906 -1.1372727 221.41560113 -1.13674965 227.54041862 -1.13381577 C230.13726748 -1.1331479 232.73411715 -1.13397003 235.33096504 -1.13629532 C238.93754416 -1.13882065 242.54406037 -1.13498512 246.15063477 -1.12939453 C247.22633224 -1.13141876 248.30202972 -1.13344299 249.4103241 -1.13552856 C250.87518753 -1.13129883 250.87518753 -1.13129883 252.36964417 -1.12698364 C253.22066995 -1.12660662 254.07169573 -1.12622959 254.94851017 -1.12584114 C257 -1 257 -1 259 0 C260.68047249 -0.09142478 262.35740817 -0.2481756 264.03057861 -0.42941284 C275.16744659 -1.37567437 286.34225777 -1.13925684 297.51074219 -1.12939453 C300.09228541 -1.13075106 302.67382843 -1.1325324 305.25537109 -1.13470459 C311.51109871 -1.13912835 317.76681426 -1.13820154 324.02254233 -1.13529195 C329.10374636 -1.13302694 334.18494703 -1.13273013 339.26615143 -1.13381577 C340.35379326 -1.13404561 340.35379326 -1.13404561 341.46340765 -1.13428011 C342.93659598 -1.13459985 344.4097843 -1.13492406 345.88297263 -1.1352527 C359.66050184 -1.1380969 373.43802437 -1.13483586 387.21555248 -1.12945233 C399.04377008 -1.12497387 410.87197788 -1.12577083 422.70019531 -1.13037109 C436.44946239 -1.13571602 450.19872364 -1.13783426 463.94799161 -1.13475883 C465.41187366 -1.13444028 466.87575571 -1.13412591 468.33963776 -1.13381577 C469.05985909 -1.13366149 469.78008043 -1.13350721 470.52212666 -1.13334826 C475.60484805 -1.13248371 480.68756575 -1.13394443 485.77028656 -1.13629532 C492.59604119 -1.13938326 499.42177432 -1.13720304 506.24752808 -1.13140106 C508.75948302 -1.13007273 511.27143952 -1.13046881 513.78339386 -1.13266373 C517.19584781 -1.13537199 520.60824091 -1.13199827 524.02069092 -1.12698364 C525.532163 -1.13032973 525.532163 -1.13032973 527.07416987 -1.13374341 C527.98079348 -1.13113566 528.88741708 -1.12852791 529.82151413 -1.12584114 C531.00421485 -1.12559761 531.00421485 -1.12559761 532.21080852 -1.12534916 C534 -1 534 -1 535 0 C535.10195155 1.55676397 535.13398313 3.11814998 535.1386652 4.67824173 C535.14413964 5.69633399 535.14961409 6.71442626 535.15525442 7.7633698 C535.15672158 9.4616074 535.15672158 9.4616074 535.15821838 11.19415283 C535.16315636 12.3863993 535.16809434 13.57864576 535.17318195 14.8070209 C535.18594014 18.13173544 535.19419684 21.45640765 535.20060861 24.78113699 C535.20859048 28.36150925 535.22229685 31.94185997 535.23532104 35.5222168 C535.25712273 41.73346535 535.27525496 47.94471605 535.29092598 54.15598297 C535.313622 63.15068397 535.34176899 72.14536137 535.37124526 81.14004239 C535.41897264 95.75057766 535.46221314 110.36112266 535.50268555 124.97167969 C535.5419302 139.13575022 535.58335023 153.29981164 535.62768555 167.46386719 C535.63040982 168.33443092 535.63313409 169.20499466 535.63594092 170.10193911 C535.64690229 173.60167665 535.65788126 177.10141413 535.66888306 180.60115154 C535.7556675 208.20871287 535.83970286 235.81628192 535.91801322 263.42386866 C535.92398483 265.52105124 535.9300238 267.61823362 535.93608284 269.71541595 C535.94720828 273.57095782 535.95801023 277.42650054 535.96876526 281.28204346 C535.9735785 282.94012807 535.9735785 282.94012807 535.97848898 284.63170934 C535.98417907 286.71462567 535.9890173 288.79754455 535.99290764 290.88046503 C535.99790566 293.07881541 536.00635016 295.2771593 536.01728046 297.47548819 C536.02124556 298.61729119 536.02521066 299.75909419 536.02929592 300.93549728 C536.03408976 301.96059111 536.0388836 302.98568494 536.04382271 304.04184222 C535.86466747 316.13533253 535.86466747 316.13533253 534 318 C532.65342063 318.08770277 531.30228125 318.1069502 529.95288086 318.09765625 C528.65772804 318.09270142 528.65772804 318.09270142 527.33641052 318.08764648 C526.38879349 318.07934814 525.44117645 318.0710498 524.46484375 318.0625 C523.47996475 318.05871338 522.49508575 318.05492676 521.48036194 318.05102539 C517.26558187 318.03477843 513.05089882 318.00736247 508.83618164 317.97949219 C505.75407408 317.96085585 502.67198483 317.94909111 499.58984375 317.9375 C498.23825417 317.92505249 498.23825417 317.92505249 496.85935974 317.91235352 C492.05804765 317.8954081 487.27233996 317.97094583 482.47758389 318.22405905 C463.56189896 319.20844266 444.65524381 319.13952677 425.72037075 319.12226619 C420.66999129 319.11879273 415.61961382 319.12121017 410.56923389 319.12284368 C401.73916628 319.12490599 392.90910544 319.12329332 384.07903862 319.11920547 C370.94926801 319.11314408 357.81950162 319.11287211 344.68972986 319.11374746 C322.59811423 319.11505825 300.50650115 319.11173915 278.41488647 319.10573006 C256.55260199 319.09979762 234.69031874 319.09595297 212.82803345 319.09487724 C212.14783016 319.09484283 211.46762687 319.09480842 210.76681136 319.09477296 C204.55374988 319.09445974 198.3406884 319.09417206 192.12762692 319.09391499 C176.68607235 319.09327578 161.2445178 319.09231658 145.80296326 319.09113979 C144.74846994 319.09105982 144.74846994 319.09105982 143.67267374 319.09097823 C109.51729635 319.08835984 75.36191978 319.08205357 41.20654297 319.07543945 C29.36122641 319.07314769 17.51590984 319.07087228 5.67059326 319.06866455 C4.93589586 319.0685276 4.20119845 319.06839065 3.44423749 319.06824955 C-30.74187942 319.06189962 -64.92799648 319.058178 -99.11411384 319.05512976 C-101.33486233 319.05493169 -103.55561083 319.0547325 -105.77635932 319.05453308 C-120.49399057 319.05321324 -135.21162182 319.0519386 -149.92925307 319.05069422 C-179.21100146 319.04821804 -208.49274982 319.04547637 -237.77449816 319.04255217 C-239.16881456 319.04241293 -240.56313095 319.04227388 -241.95744735 319.04213501 C-328.72055289 319.03349163 -415.48365752 319.0189548 -520 319 C-520.16720749 315.71592412 -520.32998387 312.43164193 -520.49206352 309.1473093 C-520.53869485 308.23248764 -520.58532618 307.31766599 -520.63337058 306.37512246 C-521.02598504 298.34785847 -521.14920783 290.33140103 -521.13552856 282.29512024 C-521.13458317 281.38388712 -521.13363777 280.472654 -521.13266373 279.53380775 C-521.13158489 278.59122297 -521.13050606 277.64863819 -521.12939453 276.67749023 C-521.13075417 274.64149952 -521.13253723 272.60550906 -521.13470459 270.56951904 C-521.13920713 265.1140502 -521.13752071 259.65860056 -521.1343255 254.20313144 C-521.13177025 248.47022375 -521.13414763 242.73731755 -521.13571167 237.00440979 C-521.1375217 227.40145577 -521.13515522 217.79850948 -521.13037109 208.19555664 C-521.12490429 197.09404017 -521.12671325 185.992542 -521.1321975 174.89102596 C-521.13673056 165.33138193 -521.13737902 155.77174341 -521.13475883 146.21209866 C-521.13320051 140.51359797 -521.13299067 134.8151059 -521.13629532 129.11660576 C-521.13917771 123.7755179 -521.13719156 118.43445381 -521.13140106 113.09336853 C-521.13007659 111.13254905 -521.13046231 109.17172758 -521.13266373 107.21090889 C-521.13538676 104.53998767 -521.13198019 101.86914322 -521.12698364 99.19822693 C-521.12921436 98.41877651 -521.13144509 97.63932609 -521.13374341 96.83625597 C-521.12119702 93.3910725 -520.96126995 90.30968164 -520 87 C-519.92555052 84.28456921 -519.90465508 81.59691075 -519.93408203 78.88256836 C-519.93875488 78.0675032 -519.94342773 77.25243805 -519.94824219 76.41267395 C-519.95873078 74.64587503 -519.97138887 72.87908796 -519.98596573 71.11231804 C-520.00798651 68.31776095 -520.02206589 65.52327163 -520.03366089 62.72865295 C-520.06726487 54.78409558 -520.10902359 46.83965119 -520.17138672 38.89526367 C-520.20897855 34.03423408 -520.23203886 29.17331939 -520.24569321 24.31216621 C-520.25376002 22.45854036 -520.26738648 20.60493021 -520.28662491 18.75138664 C-520.31302514 16.16345798 -520.32098966 13.57608342 -520.32470703 10.98803711 C-520.3370639 10.21964508 -520.34942078 9.45125305 -520.3621521 8.65957642 C-520.34282428 3.57203694 -520.34282428 3.57203694 -518.98281324 1.30272114 C-515.84852962 -0.7565235 -512.54823939 -0.4041278 -508.92095375 -0.36635017 C-507.66545356 -0.37109308 -507.66545356 -0.37109308 -506.38458973 -0.3759318 C-503.55509083 -0.38291866 -500.72610266 -0.3683462 -497.89663696 -0.35403442 C-495.85741104 -0.35462608 -493.81818515 -0.35653827 -491.77896154 -0.35966384 C-486.15558852 -0.36445041 -480.53239175 -0.35045578 -474.90904784 -0.33353782 C-468.85153912 -0.31857308 -462.79403497 -0.32088007 -456.73651123 -0.32116699 C-446.23197616 -0.31932607 -435.7274931 -0.30667142 -425.2229805 -0.28662491 C-414.19508365 -0.2656545 -403.16720942 -0.25131683 -392.13929367 -0.24569321 C-391.11099093 -0.24516619 -391.11099093 -0.24516619 -390.06191439 -0.24462853 C-386.58021917 -0.24288562 -383.09852391 -0.24127215 -379.61682861 -0.23971556 C-354.93577952 -0.22851782 -330.25475964 -0.20416305 -305.57373047 -0.17138672 C-299.59082036 -0.16345625 -293.60791023 -0.15553976 -287.625 -0.14770508 C-286.88296882 -0.14673317 -286.14093764 -0.14576126 -285.37642067 -0.1447599 C-268.1609444 -0.12232435 -250.94546401 -0.10511856 -233.72998047 -0.08935547 C-232.99300314 -0.08867783 -232.25602581 -0.08800019 -231.49671583 -0.08730201 C-214.66273063 -0.07185103 -197.82874466 -0.0578903 -180.9947567 -0.04582024 C-179.93259383 -0.04505555 -179.93259383 -0.04505555 -178.84897312 -0.04427541 C-172.47788161 -0.03969109 -166.10679009 -0.03511578 -159.73569839 -0.03078984 C-143.17696033 -0.01951921 -126.61824016 -0.00378452 -110.05951492 0.01985599 C-99.66526651 0.034626 -89.27101708 0.04604241 -78.87676187 0.05496179 C-72.88033394 0.06027437 -66.88392025 0.06731469 -60.88750076 0.07883072 C-55.39364952 0.08937586 -49.89981333 0.09526565 -44.40595262 0.09753706 C-42.42264552 0.09919164 -40.43933893 0.10255763 -38.45603819 0.10784684 C-29.16872196 0.13180188 -19.96872573 0.1077238 -10.71344221 -0.78476799 C-2.82152074 -1.41076037 -2.82152074 -1.41076037 0 0 Z " fill="#000000" transform="translate(1369,1128)"/>
<path d="M0 0 C40.36690334 -0.02286475 80.73380584 -0.0404974 121.10071435 -0.05106533 C125.8611696 -0.05231611 130.62162484 -0.05361042 135.38208008 -0.05493164 C136.32984265 -0.05519395 137.27760522 -0.05545626 138.25408787 -0.05572652 C153.62111441 -0.06008356 168.98813722 -0.0679713 184.35516154 -0.0771528 C200.11092903 -0.08648839 215.86669457 -0.09205541 231.62246472 -0.09408849 C241.35276049 -0.09546392 251.08304575 -0.09981556 260.81333829 -0.10791647 C267.47633419 -0.11318276 274.13932461 -0.11480456 280.80232244 -0.11350138 C284.65248516 -0.11285781 288.50262944 -0.11387756 292.35278893 -0.11920547 C296.51693808 -0.12492616 300.68104743 -0.12300125 304.84519958 -0.12025452 C306.69097624 -0.12462378 306.69097624 -0.12462378 308.57404131 -0.12908131 C309.68026875 -0.12709026 310.7864962 -0.12509921 311.92624569 -0.12304783 C313.37013225 -0.12361741 313.37013225 -0.12361741 314.84318823 -0.1241985 C317 0 317 0 318 1 C318.39759466 5.6192406 318.4338711 10.26685196 318.55441284 14.9009552 C318.57538437 15.67205601 318.59635591 16.44315682 318.61796294 17.23762432 C319.30993931 43.59779918 319.1427246 69.97659926 319.13166858 96.3438992 C319.1284083 104.61133549 319.1311043 112.87876758 319.13387203 121.14620367 C319.13909917 137.32820022 319.13869748 153.51019279 319.13579312 169.69218971 C319.13326785 183.83232319 319.13262541 197.97245522 319.13381577 212.11258888 C319.13393034 213.52481249 319.13393034 213.52481249 319.13404724 214.96556587 C319.13435861 218.78789834 319.13467701 222.6102308 319.135007 226.43256327 C319.1380562 262.17805438 319.13530656 297.92354297 319.1299101 333.66903369 C319.12515195 365.42852706 319.1256016 397.18801643 319.13037109 428.94750977 C319.13572007 464.68454084 319.13785341 500.42156969 319.13475883 536.15860111 C319.13443812 539.9627217 319.13412528 543.76684231 319.13381577 547.57096291 C319.13373669 548.50754695 319.13365761 549.44413099 319.13357614 550.40909636 C319.13243767 564.56479682 319.1337705 578.72049567 319.13629532 592.87619591 C319.13914647 608.9409995 319.13845644 625.00579852 319.13301457 641.07060155 C319.130068 650.06658636 319.12990151 659.06256127 319.13366075 668.05854584 C319.13589118 674.05501762 319.13452945 680.05148142 319.13015598 686.04795201 C319.12776138 689.47141384 319.12699639 692.89485589 319.13056196 696.31831714 C319.1335622 699.99292499 319.13052545 703.66747718 319.12584114 707.34208202 C319.12818231 708.42172375 319.13052347 709.50136547 319.13293558 710.61372361 C319.13043207 711.58290391 319.12792855 712.55208421 319.12534916 713.55063361 C319.12524753 714.81299136 319.12524753 714.81299136 319.12514383 716.10085128 C319 718 319 718 318 719 C316.3110492 719.09725705 314.61799428 719.12371519 312.92624569 719.12304783 C311.82001824 719.12503888 310.7137908 719.12702993 309.57404131 719.12908131 C308.34352354 719.12616847 307.11300577 719.12325563 305.84519958 719.12025452 C303.9021888 719.12153615 303.9021888 719.12153615 301.91992527 719.12284368 C298.30787469 719.12509109 294.69585347 719.12106403 291.08380663 719.11606562 C287.19489898 719.11176481 283.3059931 719.11320728 279.41708374 719.1139679 C272.6737726 719.11449337 265.93047111 719.11134417 259.1871624 719.10573006 C249.43735635 719.09761817 239.68755499 719.09500016 229.93774594 719.09374207 C214.12101092 719.09155106 198.30428105 719.08488964 182.48754883 719.07543945 C167.11905951 719.0662666 151.75057158 719.05918515 136.38208008 719.05493164 C135.4354652 719.05466892 134.48885033 719.05440619 133.51355015 719.05413551 C128.76487021 719.05283051 124.01619026 719.0515668 119.26751029 719.05032361 C79.84500326 719.03994947 40.42250197 719.02232982 1 719 C0.11611789 713.69995981 -0.13999161 708.61693116 -0.12025452 703.24947739 C-0.12110876 702.38831267 -0.12196301 701.52714795 -0.12284315 700.63988733 C-0.1244885 697.75174532 -0.11898332 694.86366158 -0.11352539 691.9755249 C-0.11324535 689.88374084 -0.1134084 687.79195667 -0.11397648 685.70017266 C-0.11427232 679.94740228 -0.10833232 674.1946525 -0.10140657 668.4418869 C-0.09503521 662.23450333 -0.09446332 656.027119 -0.0932312 649.81973267 C-0.09034039 639.04479335 -0.08391063 628.26986223 -0.07516479 617.49492645 C-0.06250989 601.82579433 -0.0565059 586.15666451 -0.05223143 570.48752812 C-0.05022471 563.16280884 -0.0478968 555.83808967 -0.04548645 548.51337051 C-0.04524544 547.77978421 -0.04500442 547.0461979 -0.04475611 546.29038171 C-0.03894044 528.81468039 -0.02999098 511.3389809 -0.02050781 493.86328125 C-0.02009417 493.09879626 -0.01968052 492.33431126 -0.01925434 491.54666005 C-0.01172535 477.64173007 -0.00394683 463.73680023 0.00390406 449.83187042 C0.00950961 439.90288761 0.01505297 429.97390477 0.02050781 420.04492188 C0.0209224 419.29242774 0.02133699 418.5399336 0.02176414 417.76463662 C0.03127465 400.47072754 0.03982025 383.17681868 0.04548645 365.88290787 C0.04584794 364.78121888 0.04584794 364.78121888 0.04621673 363.65727356 C0.0486074 356.30635839 0.05083481 348.95544319 0.05282298 341.60452791 C0.05688957 326.69085411 0.06296407 311.77718732 0.07516479 296.86351776 C0.12192336 239.15802076 0.06166612 181.46517534 -0.80324778 123.76519142 C-1.13376831 101.55564213 -1.15417436 79.34478417 -1.13037109 57.13305664 C-1.12438862 51.32770802 -1.12816629 45.52240275 -1.13394356 39.71705532 C-1.13752433 35.125144 -1.13642693 30.53324348 -1.13381577 25.94133186 C-1.13315356 23.79105689 -1.13394993 21.64078092 -1.13629532 19.49050713 C-1.13880915 16.57103589 -1.13501261 13.65164302 -1.12939453 10.73217773 C-1.13141876 9.86923599 -1.13344299 9.00629425 -1.13552856 8.11720276 C-1.1143252 2.2286504 -1.1143252 2.2286504 0 0 Z " fill="#000000" transform="translate(848,392)"/>
<path d="M0 0 C0.33 0 0.66 0 1 0 C1.50886476 5.34308003 0.12523852 7.73831112 -3 12 C-3.33 12.99 -3.66 13.98 -4 15 C-4.66 15.66 -5.32 16.32 -6 17 C-9.69121512 23.13635125 -12.84832829 29.60372195 -16.0625 36 C-16.37848145 36.62729004 -16.69446289 37.25458008 -17.02001953 37.90087891 C-21.7326716 47.35758462 -25.80887117 56.81450108 -29.0625 66.875 C-29.40684082 67.92494141 -29.75118164 68.97488281 -30.10595703 70.05664062 C-34.31036936 82.9228195 -38.36785357 95.54411421 -40.49609375 108.93359375 C-40.96092132 111.76219563 -41.50357822 114.56383043 -42.0625 117.375 C-43.07919251 122.83972223 -43.44723472 128.29081546 -43.75390625 133.8359375 C-44 137 -44 137 -44.50268555 139.32080078 C-48.12117626 158.81481996 -44.49254214 181.56296464 -42 201 C-41.84660156 202.20785156 -41.69320313 203.41570312 -41.53515625 204.66015625 C-38.04374663 226.44961043 -32.17592359 247.91935562 -23 268 C-20.80082208 273.27081659 -18.72074988 278.55095872 -17 284 C-16.34 284 -15.68 284 -15 284 C-14.88398437 283.29746094 -14.76796875 282.59492187 -14.6484375 281.87109375 C-12.80381367 273.70363283 -8.64151775 265.80275955 -4.625 258.5 C-3.72369696 254.89478783 -5.19491221 253.1241904 -7 250 C-7 249.34 -7 248.68 -7 248 C-7.66 248 -8.32 248 -9 248 C-9.33 246.02 -9.66 244.04 -10 242 C-9.34 241.67 -8.68 241.34 -8 241 C-5.69 244.63 -3.38 248.26 -1 252 C-0.154375 250.535625 0.69125 249.07125 1.5625 247.5625 C4.67671581 242.37214031 8.21173932 237.70861903 12 233 C13.8110188 230.65127664 15.61682564 228.29862451 17.421875 225.9453125 C18.86990453 224.16036521 20.26877423 222.51244449 22 221 C22.66 221 23.32 221 24 221 C24 220.34 24 219.68 24 219 C25.3125 217.5625 25.3125 217.5625 27 216 C27.515625 215.443125 28.03125 214.88625 28.5625 214.3125 C30 213 30 213 32 213 C32.33 212.34 32.66 211.68 33 211 C37.34285714 205.24864865 37.34285714 205.24864865 40.3125 204.125 C40.869375 204.08375 41.42625 204.0425 42 204 C42 203.34 42 202.68 42 202 C42.8971875 201.5978125 42.8971875 201.5978125 43.8125 201.1875 C45.97954453 200.15760159 45.97954453 200.15760159 47.2421875 198.6875 C49.68194797 196.34532995 52.46833847 194.61558226 55.3125 192.8125 C55.92552979 192.42175293 56.53855957 192.03100586 57.17016602 191.62841797 C74.11819251 180.92008162 91.55475751 173.09644713 111 168 C112.09441406 167.70996094 113.18882812 167.41992188 114.31640625 167.12109375 C120.85520927 165.49229444 127.17696798 164.57637493 133.90234375 164.18359375 C136.68177279 164.01886088 139.4212418 163.74580053 142.1875 163.4375 C161.63790329 161.6897826 183.4393458 162.67303486 202 169 C204.30990668 169.65504816 206.62253347 170.30056446 208.9375 170.9375 C213.82230888 172.32586783 218.38482444 173.86334465 223 176 C224.87480753 176.75048099 226.74983166 177.50042099 228.625 178.25 C238.16813376 182.22032633 247.47118727 187.14689323 256 193 C256 193.66 256 194.32 256 195 C256.825 195.185625 257.65 195.37125 258.5 195.5625 C262.38995327 197.16015938 264.64559965 199.09950084 267.69921875 201.921875 C271.27824458 205.1545435 275.09063683 208.09464673 278.875 211.08203125 C279.57625 211.71496094 280.2775 212.34789062 281 213 C281 213.66 281 214.32 281 215 C281.57234375 215.2371875 282.1446875 215.474375 282.734375 215.71875 C290.62288233 220.17983691 296.47073166 229.95521485 302 237 C303.33191054 238.66780391 304.6648703 240.33477201 306 242 C314.02859192 227.04095184 319.94967932 211.72983574 323 195 C323.23988647 194.06546997 323.23988647 194.06546997 323.48461914 193.11206055 C327.09303236 178.32457464 330.70283006 156.64094016 326.36230469 141.82299805 C326.18296387 140.92061401 326.18296387 140.92061401 326 140 C326.66 139.34 327.32 138.68 328 138 C333.07044892 143.07044892 331.09745152 156.28220196 331.125 163.25 C331.12967285 164.09618896 331.1343457 164.94237793 331.13916016 165.81420898 C331.12305068 171.87694932 331.12305068 171.87694932 330 173 C329.86202057 174.95624176 329.76669466 176.91549793 329.6875 178.875 C328.46179364 197.18631014 323.02057483 214.74513702 315.875 231.5625 C315.39675781 232.69042969 314.91851563 233.81835938 314.42578125 234.98046875 C313 238 313 238 311.41796875 240.30078125 C309.82565831 242.73742922 309.13261523 244.07331902 309 247 C310.77006302 251.10990887 312.9832019 254.76367605 315.34375 258.5546875 C328.87603326 280.48598184 336.52967729 310.44579944 337 336 C337.02433105 336.65468262 337.04866211 337.30936523 337.07373047 337.98388672 C338.46583897 376.38360003 327.65733874 413.8142359 306.47265625 445.7734375 C305.39425749 447.40390778 304.39083967 449.08463959 303.43359375 450.7890625 C302.72396484 451.88347656 302.72396484 451.88347656 302 453 C301.34 453 300.68 453 300 453 C299.74605469 453.56074219 299.49210937 454.12148437 299.23046875 454.69921875 C295.43769774 461.79109852 289.2394958 468.90722235 283 474 C282.34 474 281.68 474 281 474 C280.731875 474.639375 280.46375 475.27875 280.1875 475.9375 C279 478 279 478 276 479 C276 479.66 276 480.32 276 481 C273.8828125 482.9453125 273.8828125 482.9453125 271.125 485.125 C270.22007812 485.84945313 269.31515625 486.57390625 268.3828125 487.3203125 C266 489 266 489 264 489 C264 489.66 264 490.32 264 491 C259.61538462 494 259.61538462 494 257 494 C257 494.66 257 495.32 257 496 C255.54462432 496.83848804 254.08559627 497.67063934 252.625 498.5 C251.81289062 498.9640625 251.00078125 499.428125 250.1640625 499.90625 C248 501 248 501 246 501 C246 501.66 246 502.32 246 503 C226.79156469 512.18082987 226.79156469 512.18082987 219 515 C218.09556152 515.33596191 218.09556152 515.33596191 217.17285156 515.67871094 C200.7359189 521.7294535 183.56963376 525.66806555 166 526 C165.01692871 526.02046387 164.03385742 526.04092773 163.02099609 526.06201172 C149.88600014 526.29345697 136.94633346 526.45657574 124 524 C123.24074219 523.86207031 122.48148438 523.72414063 121.69921875 523.58203125 C117.66492311 522.71211801 113.6798104 521.66890373 109.6875 520.625 C108.87087891 520.41617188 108.05425781 520.20734375 107.21289062 519.9921875 C101.99816791 518.62929583 97.01327194 516.97082906 92 515 C90.845 514.57460937 89.69 514.14921875 88.5 513.7109375 C63.97839879 504.3511299 40.72406642 488.41207275 23 469 C23 468.34 23 467.68 23 467 C22.11054687 466.62875 22.11054687 466.62875 21.203125 466.25 C18.6656738 464.81031137 17.45955898 463.34848507 15.75 461 C15.22921875 460.29875 14.7084375 459.5975 14.171875 458.875 C13 457 13 457 13 455 C12.10667969 454.64615234 12.10667969 454.64615234 11.1953125 454.28515625 C8.46889547 452.68908649 7.51311297 451.13338943 5.875 448.4375 C4.97974609 446.96796875 4.97974609 446.96796875 4.06640625 445.46875 C3.57744873 444.64697266 3.57744873 444.64697266 3.07861328 443.80859375 C1.88774801 441.81177847 0.67612664 439.82824043 -0.53515625 437.84375 C-8.57171184 424.56170684 -8.57171184 424.56170684 -11.15234375 417.3359375 C-11.98124112 414.95225696 -11.98124112 414.95225696 -13.12890625 412.5390625 C-29.55037395 376.60744979 -29.29239623 334.65022611 -20 297 C-18.01881664 288.93375345 -20.23570703 284.25755684 -24 277 C-24.86613105 275.15139195 -25.72050799 273.29722691 -26.5625 271.4375 C-26.93503906 270.63183594 -27.30757812 269.82617188 -27.69140625 268.99609375 C-31.2059328 260.94940161 -34.08373659 252.88039378 -36.5 244.4375 C-36.80188232 243.39190918 -37.10376465 242.34631836 -37.41479492 241.26904297 C-39.89693473 232.57055892 -42.07633483 223.83714201 -44 215 C-44.20238281 214.13246094 -44.40476562 213.26492188 -44.61328125 212.37109375 C-46.4620267 204.03057036 -47.17810361 195.4903985 -48 187 C-48.11472656 185.86433594 -48.22945312 184.72867187 -48.34765625 183.55859375 C-49.09419559 174.65269488 -49.1040782 165.74474858 -49.125 156.8125 C-49.12967285 155.54116211 -49.1343457 154.26982422 -49.13916016 152.95996094 C-49.12268104 143.21700183 -48.80908642 133.5341381 -47 123.9375 C-46.11913595 118.99161147 -45.59729069 114.09196316 -45.24609375 109.08203125 C-45 107 -45 107 -44 106 C-43.67045097 104.40318518 -43.38744554 102.79670554 -43.125 101.1875 C-41.6872226 92.94710417 -39.70809445 84.91596838 -37 77 C-37 76.34 -37 75.68 -37 75 C-36.34 75 -35.68 75 -35 75 C-34.87625 73.329375 -34.87625 73.329375 -34.75 71.625 C-34.09096703 66.36201839 -32.12694036 61.82306195 -30 57 C-29.65453125 56.21109375 -29.3090625 55.4221875 -28.953125 54.609375 C-28.31694229 53.17062332 -27.67579198 51.73404666 -27.02734375 50.30078125 C-26.20052656 48.449088 -25.40393112 46.58391545 -24.6171875 44.71484375 C-22.95139818 40.8189705 -21.0928144 37.03343636 -19.1875 33.25 C-18.8363916 32.55189209 -18.4852832 31.85378418 -18.12353516 31.13452148 C-13.9116364 22.79986976 -9.60865245 14.66022752 -4.3203125 6.94921875 C-3.2154548 5.31808267 -2.19091586 3.6329268 -1.1875 1.9375 C-0.795625 1.298125 -0.40375 0.65875 0 0 Z " fill="#000000" transform="translate(1959,948)"/>
<path d="M0 0 C1.54228271 -0.00700928 1.54228271 -0.00700928 3.11572266 -0.01416016 C4.08171387 -0.01206543 5.04770508 -0.0099707 6.04296875 -0.0078125 C6.91332764 -0.00668457 7.78368652 -0.00555664 8.68041992 -0.00439453 C10.8125 0.125 10.8125 0.125 12.8125 1.125 C14.54525362 1.03092756 16.27454414 0.87212606 18 0.6875 C24.67195424 0.10896343 31.30429994 0.0077863 38 0 C39.02826904 -0.00443115 40.05653809 -0.0088623 41.1159668 -0.01342773 C42.08187744 -0.01157471 43.04778809 -0.00972168 44.04296875 -0.0078125 C44.91332764 -0.00668457 45.78368652 -0.00555664 46.68041992 -0.00439453 C48.8125 0.125 48.8125 0.125 50.8125 1.125 C52.45349514 0.89184349 54.09397133 0.65400239 55.73055208 0.39164674 C59.63509501 -0.10842996 63.55563536 -0.01559223 67.48640442 -0.00871277 C68.44244196 -0.01097833 69.3984795 -0.01324388 70.38348788 -0.01557809 C73.57704142 -0.02189269 76.77055225 -0.02109038 79.96411133 -0.02026367 C82.25743667 -0.02325658 84.55076151 -0.02665941 86.84408569 -0.03044128 C93.06468415 -0.03926797 99.28526885 -0.04161872 105.50587296 -0.04225707 C110.69540257 -0.04320683 115.88492897 -0.04688555 121.07445735 -0.05042917 C132.61085295 -0.05810261 144.1472407 -0.06109823 155.68363849 -0.06042381 C156.72086854 -0.06036388 156.72086854 -0.06036388 157.77905273 -0.06030273 C158.8175479 -0.06024141 158.8175479 -0.06024141 159.87702277 -0.06017885 C171.11729721 -0.0597717 182.35753826 -0.06936104 193.59780303 -0.0834411 C205.13998464 -0.09778547 216.68214562 -0.10452907 228.2243368 -0.10384732 C234.70435532 -0.10359175 241.18433597 -0.10647638 247.66434669 -0.11702538 C253.75052242 -0.12666359 259.83662372 -0.12681515 265.92280197 -0.11950874 C268.16181102 -0.11845784 270.4008246 -0.1208555 272.63982582 -0.1268692 C275.68447771 -0.13452037 278.72886804 -0.12999048 281.77351379 -0.12223816 C282.66950423 -0.12738172 283.56549466 -0.13252529 284.48863631 -0.13782471 C290.58422786 -0.10327214 290.58422786 -0.10327214 292.8125 2.125 C292.99540299 4.72538361 293.05387436 7.2178978 293.02368164 9.81811523 C293.0223674 10.61384445 293.02105316 11.40957367 293.0196991 12.22941589 C293.01317267 14.88092621 292.99268401 17.53215391 292.97265625 20.18359375 C292.96637669 22.04419136 292.96113965 23.90479275 292.95689392 25.76539612 C292.94354456 30.69528212 292.91914826 35.62504599 292.89154053 40.55487061 C292.84352769 49.2852348 292.81096614 58.01563875 292.78515625 66.74609375 C292.78180897 67.68402142 292.77846169 68.62194908 292.77501297 69.5882988 C292.73534427 82.02022017 292.85987486 94.41063646 293.54151917 106.82701111 C293.77247877 111.33732124 293.82963291 115.65323688 293.34399414 120.14672852 C292.56313907 127.58895568 292.70157672 135.03260313 292.73733521 142.50646591 C292.75024181 145.23072844 292.75664962 147.9549416 292.76147461 150.67922974 C292.77282293 156.45284226 292.79209227 162.22641334 292.8125 168 C292.83614425 174.71594067 292.85649508 181.43185845 292.86843872 188.14783096 C292.87490365 190.82725398 292.88740467 193.5066052 292.90014648 196.18600464 C292.90377886 197.82826679 292.90713061 199.47052959 292.91015625 201.11279297 C292.91532257 201.85364639 292.92048889 202.59449982 292.92581177 203.35780334 C292.92619203 207.07620628 292.70558955 210.5098746 291.8125 214.125 C289.60392945 213.98280436 287.39565013 213.83608153 285.1875 213.6875 C283.34285156 213.56568359 283.34285156 213.56568359 281.4609375 213.44140625 C277.8125 213.125 277.8125 213.125 274.84375 212.58984375 C271.18913175 212.02940616 267.6210218 212.05831217 263.9375 212.125 C259.58754782 212.17315079 255.3144534 212.19721475 251 211.5625 C247.79906229 210.88376119 247.79906229 210.88376119 244.8125 212.125 C243.8225 211.465 242.8325 210.805 241.8125 210.125 C238.78942021 209.96462196 235.86049503 209.9171912 232.83984375 209.96484375 C231.52156334 209.9726461 231.52156334 209.9726461 230.176651 209.98060608 C227.36759974 209.99842841 224.5589121 210.02960651 221.75 210.0625 C218.93755292 210.09009418 216.12515672 210.11480062 213.31263733 210.13368225 C211.56196968 210.14596288 209.81133 210.16358922 208.06077576 210.18699646 C202.03598121 210.23674061 202.03598121 210.23674061 199.8125 209.125 C198.13761321 209.10875137 196.46182787 209.16026953 194.7890625 209.24609375 C193.76683594 209.29443359 192.74460937 209.34277344 191.69140625 209.39257812 C190.61761719 209.44865234 189.54382812 209.50472656 188.4375 209.5625 C165.0469457 210.74222285 165.0469457 210.74222285 161.8125 209.125 C159.90352346 209.07750996 159.90352346 209.07750996 157.69296265 209.24142456 C156.81270731 209.28916079 155.93245197 209.33689701 155.02552223 209.38607979 C153.54988336 209.46929891 153.54988336 209.46929891 152.04443359 209.55419922 C141.44134084 210.06887998 130.86143315 210.23794367 120.24853516 210.25439453 C119.45851758 210.25567911 118.6685 210.25696369 117.85454249 210.25828719 C112.81381965 210.26469686 107.77311984 210.26314156 102.73239565 210.2593255 C98.26246363 210.25675483 93.79253344 210.25915142 89.32260132 210.26071167 C81.84771345 210.2625157 74.37283556 210.2601696 66.89794922 210.25537109 C58.25649785 210.24988782 49.61506994 210.25172737 40.9736191 210.2571975 C33.51838658 210.26172711 26.06316113 210.26238125 18.60792768 210.25975883 C14.16932564 210.25820083 9.73073466 210.25799014 5.29213333 210.26129532 C1.14031359 210.26417326 -3.01147552 210.26219986 -7.16329193 210.25640106 C-8.68795089 210.25507493 -10.21261241 210.2554651 -11.73727036 210.25766373 C-13.81099669 210.26037986 -15.88462358 210.25698895 -17.95834351 210.25198364 C-19.70078622 210.2514181 -19.70078622 210.2514181 -21.47842979 210.25084114 C-24.1875 210.125 -24.1875 210.125 -26.1875 209.125 C-26.21083088 182.3004789 -26.22848011 155.47595932 -26.23931217 128.65143013 C-26.24447472 116.19714138 -26.25151666 103.74285893 -26.26293945 91.28857422 C-26.27288752 80.43703802 -26.27935372 69.58550638 -26.28158849 58.73396575 C-26.28289539 52.98491151 -26.28597993 47.2358703 -26.29323006 41.48682022 C-26.2999922 36.08117951 -26.30211656 30.67555726 -26.30060768 25.26991272 C-26.30088392 23.28085607 -26.30288789 21.29179883 -26.30670547 19.30274582 C-26.31164574 16.5971627 -26.31049703 13.89165027 -26.30775452 11.18606567 C-26.31066736 10.39035601 -26.3135802 9.59464634 -26.31658131 8.77482426 C-26.30162121 3.35324242 -26.30162121 3.35324242 -25.1875 1.125 C-17.04217564 -0.45632671 -8.26467528 0.02692912 0 0 Z " fill="#000000" transform="translate(1611.1875,900.875)"/>
<path d="M0 0 C0.8289679 -0.00637985 1.65793579 -0.0127597 2.51202393 -0.01933289 C3.84943634 -0.02100212 3.84943634 -0.02100212 5.21386719 -0.02270508 C6.6133963 -0.02769768 6.6133963 -0.02769768 8.04119873 -0.03279114 C10.02160145 -0.03785423 12.00201269 -0.04019965 13.98242188 -0.04003906 C16.9581594 -0.04219818 19.9335091 -0.06028359 22.90917969 -0.0793457 C34.04693198 -0.11211031 44.74949861 0.44366893 55.76074219 2.14526367 C58.21875076 2.48098344 60.6770445 2.81462856 63.13574219 3.14526367 C71.19059332 4.31821128 78.9437989 5.87124381 86.76074219 8.14526367 C88.21735981 8.4656657 89.675841 8.77767206 91.13574219 9.08276367 C95.01736044 9.92345257 98.70730202 11.06428794 102.45605469 12.36791992 C104.81133714 13.16232875 107.18159278 13.84403053 109.57324219 14.52026367 C115.49644631 16.28170958 121.09387271 18.69789303 126.76074219 21.14526367 C127.92347656 21.63381836 129.08621094 22.12237305 130.28417969 22.62573242 C137.2424136 25.56147319 144.06165748 28.65680021 150.76074219 32.14526367 C150.76074219 32.80526367 150.76074219 33.46526367 150.76074219 34.14526367 C151.35113281 34.27932617 151.94152344 34.41338867 152.54980469 34.55151367 C161.38145064 36.92326311 169.21948466 43.14750721 176.76074219 48.14526367 C177.5715625 48.68151367 178.38238281 49.21776367 179.21777344 49.77026367 C180.77461958 50.83564107 182.27737001 51.97975696 183.76074219 53.14526367 C183.76074219 53.80526367 183.76074219 54.46526367 183.76074219 55.14526367 C184.62699219 55.29995117 184.62699219 55.29995117 185.51074219 55.45776367 C188.11735376 56.25422832 189.73427329 57.33591644 191.76074219 59.14526367 C191.76074219 59.80526367 191.76074219 60.46526367 191.76074219 61.14526367 C192.46199219 61.37213867 193.16324219 61.59901367 193.88574219 61.83276367 C197.50202754 63.48367655 199.84844195 65.43614717 202.76074219 68.14526367 C202.76074219 68.80526367 202.76074219 69.46526367 202.76074219 70.14526367 C203.34984375 70.41725586 203.93894531 70.68924805 204.54589844 70.96948242 C210.02897144 73.88024957 214.47225032 78.73764703 218.76074219 83.14526367 C219.35886719 83.70213867 219.95699219 84.25901367 220.57324219 84.83276367 C221.76074219 86.14526367 221.76074219 86.14526367 221.76074219 88.14526367 C222.42074219 88.14526367 223.08074219 88.14526367 223.76074219 88.14526367 C223.76074219 88.80526367 223.76074219 89.46526367 223.76074219 90.14526367 C224.75074219 90.47526367 225.74074219 90.80526367 226.76074219 91.14526367 C228.95214844 93.47338867 228.95214844 93.47338867 231.32324219 96.39526367 C232.10828125 97.34916992 232.89332031 98.30307617 233.70214844 99.28588867 C235.76074219 102.14526367 235.76074219 102.14526367 236.85058594 104.94213867 C237.30111328 106.03268555 237.30111328 106.03268555 237.76074219 107.14526367 C238.75074219 107.47526367 239.74074219 107.80526367 240.76074219 108.14526367 C242.42894054 110.26292479 243.95144843 112.35070281 245.44824219 114.58276367 C245.86396484 115.1815332 246.2796875 115.78030273 246.70800781 116.3972168 C249.76074219 120.87355801 249.76074219 120.87355801 249.76074219 123.14526367 C250.75074219 123.47526367 251.74074219 123.80526367 252.76074219 124.14526367 C264.76074219 141.47859701 264.76074219 141.47859701 264.76074219 147.14526367 C265.42074219 147.47526367 266.08074219 147.80526367 266.76074219 148.14526367 C269.0447475 150.79470983 269.94966626 152.79957548 270.76074219 156.14526367 C271.7540942 157.81590114 272.75505976 159.48201966 273.76074219 161.14526367 C277.91824591 170.57429835 281.93835025 180.16438443 285.04980469 189.99291992 C285.86964859 192.47497482 286.81933808 194.89431469 287.76074219 197.33276367 C289.85101313 203.0750929 291.11492818 208.85066341 292.29394531 214.83813477 C292.85666306 217.61934956 293.45674581 220.39157553 294.05761719 223.16479492 C294.5212385 225.32493408 294.98477975 227.48509042 295.44824219 229.64526367 C295.67503662 230.68448975 295.90183105 231.72371582 296.13549805 232.79443359 C297.17090053 237.6825334 297.93193406 242.12363531 297.76074219 247.14526367 C298.09074219 247.80526367 298.42074219 248.46526367 298.76074219 249.14526367 C298.80073419 251.14486379 298.80421018 253.14573609 298.76074219 255.14526367 C295.76074219 254.14526367 295.76074219 254.14526367 294.57324219 252.02026367 C293.61158344 248.6174712 293.76074219 245.68005747 293.76074219 242.14526367 C293.36228848 239.98344036 292.84825804 237.86665729 292.32714844 235.73120117 C291.66689049 232.71678211 291.24714527 229.70164051 290.82324219 226.64526367 C290.12529155 221.92447945 289.10357299 217.64428972 287.47167969 213.16870117 C286.59139229 210.66326782 286.03774605 208.1021561 285.42871094 205.52026367 C284.17562659 201.06485267 282.49294509 196.75092549 280.88183594 192.41479492 C279.92899526 189.63595296 279.30125391 187.02138108 278.76074219 184.14526367 C278.09680298 182.51861261 277.4264358 180.89399962 276.70996094 179.28979492 C275.53491128 176.63505309 274.43136017 173.95361398 273.32324219 171.27026367 C272.47003238 169.22819695 271.61589739 167.18651649 270.76074219 165.14526367 C270.21353516 163.82461914 270.21353516 163.82461914 269.65527344 162.47729492 C269.31882812 161.68709961 268.98238281 160.8969043 268.63574219 160.08276367 C268.34441406 159.39053711 268.05308594 158.69831055 267.75292969 157.98510742 C266.85375504 156.09435451 266.85375504 156.09435451 265.32421875 154.76074219 C263.68639138 153.06843992 262.7900776 151.56301913 261.75292969 149.45776367 C261.40617187 148.7590918 261.05941406 148.06041992 260.70214844 147.34057617 C260.17427734 146.25389648 260.17427734 146.25389648 259.63574219 145.14526367 C259.27609375 144.42081055 258.91644531 143.69635742 258.54589844 142.94995117 C257.10545204 140.02589894 255.79366232 137.24402408 254.76074219 134.14526367 C254.10074219 133.81526367 253.44074219 133.48526367 252.76074219 133.14526367 C251.47167969 131.36791992 251.47167969 131.36791992 250.13574219 129.20776367 C249.68972656 128.49749023 249.24371094 127.7872168 248.78417969 127.05541992 C247.76074219 125.14526367 247.76074219 125.14526367 247.76074219 123.14526367 C247.10074219 123.14526367 246.44074219 123.14526367 245.76074219 123.14526367 C245.32761719 122.21713867 244.89449219 121.28901367 244.44824219 120.33276367 C243.01620489 117.62780434 241.90887303 116.19110257 239.76074219 114.14526367 C239.76074219 113.48526367 239.76074219 112.82526367 239.76074219 112.14526367 C239.10074219 112.14526367 238.44074219 112.14526367 237.76074219 112.14526367 C237.35855469 111.24807617 237.35855469 111.24807617 236.94824219 110.33276367 C235.87134428 108.10198459 235.87134428 108.10198459 234.13574219 106.52026367 C233.68199219 106.06651367 233.22824219 105.61276367 232.76074219 105.14526367 C232.76074219 104.48526367 232.76074219 103.82526367 232.76074219 103.14526367 C231.77074219 102.81526367 230.78074219 102.48526367 229.76074219 102.14526367 C229.76074219 101.48526367 229.76074219 100.82526367 229.76074219 100.14526367 C229.10074219 100.14526367 228.44074219 100.14526367 227.76074219 100.14526367 C227.65761719 99.50588867 227.55449219 98.86651367 227.44824219 98.20776367 C227.10792969 97.18682617 227.10792969 97.18682617 226.76074219 96.14526367 C225.77074219 95.81526367 224.78074219 95.48526367 223.76074219 95.14526367 C223.76074219 94.48526367 223.76074219 93.82526367 223.76074219 93.14526367 C223.10074219 93.14526367 222.44074219 93.14526367 221.76074219 93.14526367 C220.13574219 91.77026367 220.13574219 91.77026367 218.76074219 90.14526367 C218.76074219 89.48526367 218.76074219 88.82526367 218.76074219 88.14526367 C217.77074219 87.81526367 216.78074219 87.48526367 215.76074219 87.14526367 C214.06985997 85.16569425 212.40243747 83.16581171 210.76074219 81.14526367 C210.10074219 80.81526367 209.44074219 80.48526367 208.76074219 80.14526367 C208.76074219 79.48526367 208.76074219 78.82526367 208.76074219 78.14526367 C208.10074219 78.14526367 207.44074219 78.14526367 206.76074219 78.14526367 C206.76074219 77.48526367 206.76074219 76.82526367 206.76074219 76.14526367 C206.16261719 75.85651367 205.56449219 75.56776367 204.94824219 75.27026367 C202.76074219 74.14526367 202.76074219 74.14526367 199.76074219 72.14526367 C199.76074219 71.48526367 199.76074219 70.82526367 199.76074219 70.14526367 C199.19871094 69.88745117 198.63667969 69.62963867 198.05761719 69.36401367 C195.4936964 68.00356591 193.30847853 66.41737406 191.01074219 64.64526367 C190.21152344 64.03682617 189.41230469 63.42838867 188.58886719 62.80151367 C187.98558594 62.25495117 187.38230469 61.70838867 186.76074219 61.14526367 C186.76074219 60.48526367 186.76074219 59.82526367 186.76074219 59.14526367 C185.44074219 58.81526367 184.12074219 58.48526367 182.76074219 58.14526367 C182.76074219 57.48526367 182.76074219 56.82526367 182.76074219 56.14526367 C182.03757812 55.88616211 181.31441406 55.62706055 180.56933594 55.36010742 C177.65001121 54.09736752 175.38250014 52.58778729 172.82324219 50.70776367 C169.23129559 48.13058225 165.79102877 45.94828662 161.76074219 44.14526367 C161.76074219 43.48526367 161.76074219 42.82526367 161.76074219 42.14526367 C161.03886719 42.04213867 160.31699219 41.93901367 159.57324219 41.83276367 C156.44591691 41.06830638 154.50546143 39.82838264 151.76074219 38.14526367 C149.35086168 36.81764851 146.93685739 35.50482119 144.51074219 34.20776367 C143.89328125 33.87325195 143.27582031 33.53874023 142.63964844 33.1940918 C133.30274914 28.19836939 123.61106256 24.54773793 113.63574219 21.02026367 C112.39953125 20.57811523 111.16332031 20.1359668 109.88964844 19.68041992 C88.03597215 11.91074554 65.85941512 7.36875139 42.77636719 5.39135742 C40.76074219 5.14526367 40.76074219 5.14526367 38.89242554 4.63796997 C36.72881236 4.13788358 34.85506479 4.0183838 32.63818359 4.01586914 C31.83700104 4.01271698 31.03581848 4.00956482 30.21035767 4.00631714 C29.35300018 4.00834137 28.4956427 4.0103656 27.61230469 4.01245117 C26.72215668 4.01149445 25.83200867 4.01053772 24.91488647 4.009552 C23.03375172 4.00887224 21.15261461 4.01071229 19.27148438 4.01489258 C16.40326617 4.02023106 13.53520545 4.01494718 10.66699219 4.00854492 C8.83626268 4.00920599 7.00553326 4.01048774 5.17480469 4.01245117 C3.89484116 4.00941483 3.89484116 4.00941483 2.58901978 4.00631714 C-1.80665899 4.02347641 -5.90811812 4.29740532 -10.23925781 5.14526367 C-12.15438462 5.31009016 -14.07125138 5.45576054 -15.98925781 5.58276367 C-21.53100676 6.0211715 -26.82322614 6.91882344 -32.23925781 8.14526367 C-32.98820312 8.31155273 -33.73714844 8.4778418 -34.50878906 8.64916992 C-35.98984297 8.97858121 -37.47032111 9.31059247 -38.95019531 9.64526367 C-41.41496687 10.18364381 -43.88728707 10.66633277 -46.36425781 11.14526367 C-50.3971943 11.94564645 -54.30178079 12.94995815 -58.23925781 14.14526367 C-59.02171875 14.37213867 -59.80417969 14.59901367 -60.61035156 14.83276367 C-61.45726563 15.08026367 -62.30417969 15.32776367 -63.17675781 15.58276367 C-63.94890625 15.80834961 -64.72105469 16.03393555 -65.51660156 16.26635742 C-73.50911922 18.84643845 -81.20146257 22.18095464 -88.92675781 25.45776367 C-90.07982422 25.94543213 -91.23289062 26.43310059 -92.42089844 26.93554688 C-99.38815239 29.89485747 -106.29557116 32.93057786 -113.11425781 36.21948242 C-115.23925781 37.14526367 -115.23925781 37.14526367 -117.23925781 37.14526367 C-117.73425781 38.13526367 -117.73425781 38.13526367 -118.23925781 39.14526367 C-120.18265121 40.41032977 -122.16901895 41.61002457 -124.17675781 42.77026367 C-125.25828125 43.4019043 -126.33980469 44.03354492 -127.45410156 44.68432617 C-130.23925781 46.14526367 -130.23925781 46.14526367 -132.23925781 46.14526367 C-132.23925781 46.80526367 -132.23925781 47.46526367 -132.23925781 48.14526367 C-138.98925781 52.14526367 -138.98925781 52.14526367 -141.23925781 52.14526367 C-141.23925781 52.80526367 -141.23925781 53.46526367 -141.23925781 54.14526367 C-141.87863281 54.26901367 -142.51800781 54.39276367 -143.17675781 54.52026367 C-143.85738281 54.72651367 -144.53800781 54.93276367 -145.23925781 55.14526367 C-145.73425781 56.13526367 -145.73425781 56.13526367 -146.23925781 57.14526367 C-149.81618089 60.14526367 -149.81618089 60.14526367 -152.23925781 60.14526367 C-152.23925781 60.80526367 -152.23925781 61.46526367 -152.23925781 62.14526367 C-153.88925781 62.80526367 -155.53925781 63.46526367 -157.23925781 64.14526367 C-157.23925781 64.80526367 -157.23925781 65.46526367 -157.23925781 66.14526367 C-159.23209919 67.48927298 -161.23345452 68.82067659 -163.23925781 70.14526367 C-164.92637204 71.79122878 -166.59382001 73.45763516 -168.23925781 75.14526367 C-169.10550781 75.82588867 -169.97175781 76.50651367 -170.86425781 77.20776367 C-173.2959708 79.03289975 -173.2959708 79.03289975 -174.92675781 81.39526367 C-175.35988281 81.97276367 -175.79300781 82.55026367 -176.23925781 83.14526367 C-176.89925781 83.14526367 -177.55925781 83.14526367 -178.23925781 83.14526367 C-178.23925781 83.80526367 -178.23925781 84.46526367 -178.23925781 85.14526367 C-182.54158339 89.91270553 -182.54158339 89.91270553 -186.23925781 91.14526367 C-186.73425781 92.13526367 -186.73425781 92.13526367 -187.23925781 93.14526367 C-187.73425781 94.13526367 -187.73425781 94.13526367 -188.23925781 95.14526367 C-189.72425781 95.64026367 -189.72425781 95.64026367 -191.23925781 96.14526367 C-191.67238281 97.13526367 -191.67238281 97.13526367 -192.11425781 98.14526367 C-193.23925781 100.14526367 -193.23925781 100.14526367 -195.86425781 100.89526367 C-196.64800781 100.97776367 -197.43175781 101.06026367 -198.23925781 101.14526367 C-196.05881134 97.12865175 -193.49783034 94.32805544 -190.23925781 91.14526367 C-189.22853902 89.98787064 -188.22895249 88.82068511 -187.23925781 87.64526367 C-184.69552067 84.6491609 -182.13860483 81.80299844 -179.23925781 79.14526367 C-178.57925781 79.14526367 -177.91925781 79.14526367 -177.23925781 79.14526367 C-177.23925781 78.48526367 -177.23925781 77.82526367 -177.23925781 77.14526367 C-176.62050781 77.06276367 -176.00175781 76.98026367 -175.36425781 76.89526367 C-173.09534977 76.35928524 -173.09534977 76.35928524 -172.23925781 74.33276367 C-171.90925781 73.61088867 -171.57925781 72.88901367 -171.23925781 72.14526367 C-169.23925781 69.89526367 -169.23925781 69.89526367 -167.23925781 68.14526367 C-166.57925781 68.14526367 -165.91925781 68.14526367 -165.23925781 68.14526367 C-164.90925781 67.48526367 -164.57925781 66.82526367 -164.23925781 66.14526367 C-162.26209486 64.43771385 -160.27242641 62.78255088 -158.23925781 61.14526367 C-157.33175781 60.38213867 -156.42425781 59.61901367 -155.48925781 58.83276367 C-153.23925781 57.14526367 -153.23925781 57.14526367 -151.23925781 57.14526367 C-150.74425781 56.15526367 -150.74425781 56.15526367 -150.23925781 55.14526367 C-148.57646454 54.13883617 -146.90942297 53.1394096 -145.23925781 52.14526367 C-144.74425781 51.65026367 -144.24925781 51.15526367 -143.73925781 50.64526367 C-141.7833324 48.68933826 -139.6671317 47.45258038 -137.23925781 46.14526367 C-136.57925781 46.14526367 -135.91925781 46.14526367 -135.23925781 46.14526367 C-135.23925781 45.48526367 -135.23925781 44.82526367 -135.23925781 44.14526367 C-133.45044046 43.14017566 -131.65811086 42.14133631 -129.86425781 41.14526367 C-128.86652344 40.58838867 -127.86878906 40.03151367 -126.84082031 39.45776367 C-124.23925781 38.14526367 -124.23925781 38.14526367 -122.23925781 38.14526367 C-121.74425781 37.15526367 -121.74425781 37.15526367 -121.23925781 36.14526367 C-119.57202148 35.07958984 -119.57202148 35.07958984 -117.40722656 33.93823242 C-116.61461426 33.51888428 -115.82200195 33.09953613 -115.00537109 32.66748047 C-114.15442871 32.22702393 -113.30348633 31.78656738 -112.42675781 31.33276367 C-111.56034668 30.8813501 -110.69393555 30.42993652 -109.80126953 29.96484375 C-103.406498 26.66856362 -96.96223785 23.7139057 -90.23925781 21.14526367 C-89.15 20.71600586 -88.06074219 20.28674805 -86.93847656 19.84448242 C-81.41749155 17.68575818 -75.88855301 15.61955101 -70.23925781 13.82104492 C-68.7475356 13.31700597 -67.27716782 12.74892611 -65.82128906 12.14916992 C-63.20468894 11.13182313 -60.655295 10.42634758 -57.92675781 9.77026367 C-54.33871159 8.90097188 -50.75422915 8.02527422 -47.18066406 7.09838867 C-46.48561768 6.91969238 -45.79057129 6.74099609 -45.07446289 6.55688477 C-43.72313984 6.20912595 -42.37265369 5.85809212 -41.02319336 5.50317383 C-34.83331586 3.92488463 -28.64994416 3.25295331 -22.30175781 2.64526367 C-17.33193135 2.15588051 -17.33193135 2.15588051 -12.36425781 1.64526367 C-11.31625 1.53698242 -11.31625 1.53698242 -10.24707031 1.42651367 C-8.24685205 1.1897536 -8.24685205 1.1897536 -6.37872314 0.63676453 C-4.17940049 0.13151261 -2.25367697 0.01185701 0 0 Z " fill="#000000" transform="translate(2174.2392578125,825.854736328125)"/>
<path d="M0 0 C0.33 0 0.66 0 1 0 C1.53464435 2.20503036 2.05214435 4.41422172 2.5625 6.625 C2.85253906 7.85476563 3.14257812 9.08453125 3.44140625 10.3515625 C3.99888533 13.99271958 4.02875014 16.47433368 3 20 C2.01 20.66 1.02 21.32 0 22 C-3.0320195 15.93596099 -0.77691297 6.52051959 0 0 Z " fill="#000000" transform="translate(1587,1747)"/>
<path d="" fill="#000000" transform="translate(0,0)"/>
</svg>
